<?xml version="1.0" encoding="UTF-8"?>
<svg xmlns="http://www.w3.org/2000/svg" xmlns:xlink="http://www.w3.org/1999/xlink" width="515" height="451" viewBox="0 0 515 451">
<path fill="none" stroke-width="2" stroke-linecap="butt" stroke-linejoin="round" stroke="rgb(0%, 0%, 0%)" stroke-opacity="1" stroke-miterlimit="10" d="M 64 768 L 64 704 L 576 704 L 576 768 Z M 64 768 " transform="matrix(1, 0, 0, -1, -63, 769)"/>
<path fill="none" stroke-width="2" stroke-linecap="butt" stroke-linejoin="round" stroke="rgb(0%, 0%, 0%)" stroke-opacity="1" stroke-miterlimit="10" d="M 64 576 L 64 512 L 128 512 L 128 576 Z M 64 576 " transform="matrix(1, 0, 0, -1, -63, 769)"/>
<path fill="none" stroke-width="2" stroke-linecap="butt" stroke-linejoin="round" stroke="rgb(0%, 0%, 0%)" stroke-opacity="1" stroke-miterlimit="10" d="M 128 576 L 128 512 L 192 512 L 192 576 Z M 128 576 " transform="matrix(1, 0, 0, -1, -63, 769)"/>
<path fill="none" stroke-width="2" stroke-linecap="butt" stroke-linejoin="round" stroke="rgb(0%, 0%, 0%)" stroke-opacity="1" stroke-miterlimit="10" d="M 192 576 L 192 512 L 256 512 L 256 576 Z M 192 576 " transform="matrix(1, 0, 0, -1, -63, 769)"/>
<path fill="none" stroke-width="2" stroke-linecap="butt" stroke-linejoin="round" stroke="rgb(0%, 0%, 0%)" stroke-opacity="1" stroke-miterlimit="10" d="M 256 576 L 256 512 L 320 512 L 320 576 Z M 256 576 " transform="matrix(1, 0, 0, -1, -63, 769)"/>
<path fill="none" stroke-width="2" stroke-linecap="butt" stroke-linejoin="round" stroke="rgb(0%, 0%, 0%)" stroke-opacity="1" stroke-miterlimit="10" d="M 320 576 L 320 512 L 384 512 L 384 576 Z M 320 576 " transform="matrix(1, 0, 0, -1, -63, 769)"/>
<path fill="none" stroke-width="2" stroke-linecap="butt" stroke-linejoin="round" stroke="rgb(0%, 0%, 0%)" stroke-opacity="1" stroke-miterlimit="10" d="M 384 576 L 384 512 L 448 512 L 448 576 Z M 384 576 " transform="matrix(1, 0, 0, -1, -63, 769)"/>
<path fill="none" stroke-width="2" stroke-linecap="butt" stroke-linejoin="round" stroke="rgb(0%, 0%, 0%)" stroke-opacity="1" stroke-miterlimit="10" d="M 448 576 L 448 512 L 512 512 L 512 576 Z M 448 576 " transform="matrix(1, 0, 0, -1, -63, 769)"/>
<path fill="none" stroke-width="2" stroke-linecap="butt" stroke-linejoin="round" stroke="rgb(0%, 0%, 0%)" stroke-opacity="1" stroke-miterlimit="10" d="M 512 576 L 512 512 L 576 512 L 576 576 Z M 512 576 " transform="matrix(1, 0, 0, -1, -63, 769)"/>
<path fill="none" stroke-width="2" stroke-linecap="butt" stroke-linejoin="round" stroke="rgb(0%, 0%, 0%)" stroke-opacity="1" stroke-miterlimit="10" d="M 320 688 L 320 592 " transform="matrix(1, 0, 0, -1, -63, 769)"/>
<path fill-rule="evenodd" fill="rgb(0%, 0%, 0%)" fill-opacity="1" stroke-width="2" stroke-linecap="butt" stroke-linejoin="round" stroke="rgb(0%, 0%, 0%)" stroke-opacity="1" stroke-miterlimit="10" d="M 320 592 L 322.332031 599 L 317.667969 599 Z M 320 592 " transform="matrix(1, 0, 0, -1, -63, 769)"/>
<path fill="none" stroke-width="2" stroke-linecap="butt" stroke-linejoin="round" stroke="rgb(0%, 0%, 0%)" stroke-opacity="1" stroke-miterlimit="10" d="M 64 384 L 64 320 L 128 320 L 128 384 Z M 64 384 " transform="matrix(1, 0, 0, -1, -63, 769)"/>
<path fill="none" stroke-width="2" stroke-linecap="butt" stroke-linejoin="round" stroke="rgb(0%, 0%, 0%)" stroke-opacity="1" stroke-miterlimit="10" d="M 64 384 L 64 368 L 128 368 L 128 384 Z M 64 384 " transform="matrix(1, 0, 0, -1, -63, 769)"/>
<path fill="none" stroke-width="2" stroke-linecap="butt" stroke-linejoin="round" stroke="rgb(0%, 0%, 0%)" stroke-opacity="1" stroke-miterlimit="10" d="M 64 368 L 64 352 L 128 352 L 128 368 Z M 64 368 " transform="matrix(1, 0, 0, -1, -63, 769)"/>
<path fill="none" stroke-width="2" stroke-linecap="butt" stroke-linejoin="round" stroke="rgb(0%, 0%, 0%)" stroke-opacity="1" stroke-miterlimit="10" d="M 64 352 L 64 336 L 128 336 L 128 352 Z M 64 352 " transform="matrix(1, 0, 0, -1, -63, 769)"/>
<path fill="none" stroke-width="2" stroke-linecap="butt" stroke-linejoin="round" stroke="rgb(0%, 0%, 0%)" stroke-opacity="1" stroke-miterlimit="10" d="M 64 336 L 64 320 L 128 320 L 128 336 Z M 64 336 " transform="matrix(1, 0, 0, -1, -63, 769)"/>
<path fill="none" stroke-width="2" stroke-linecap="butt" stroke-linejoin="round" stroke="rgb(0%, 0%, 0%)" stroke-opacity="1" stroke-miterlimit="10" d="M 64 384 L 64 320 L 80 320 L 80 384 Z M 64 384 " transform="matrix(1, 0, 0, -1, -63, 769)"/>
<path fill="none" stroke-width="2" stroke-linecap="butt" stroke-linejoin="round" stroke="rgb(0%, 0%, 0%)" stroke-opacity="1" stroke-miterlimit="10" d="M 80 384 L 80 320 L 96 320 L 96 384 Z M 80 384 " transform="matrix(1, 0, 0, -1, -63, 769)"/>
<path fill="none" stroke-width="2" stroke-linecap="butt" stroke-linejoin="round" stroke="rgb(0%, 0%, 0%)" stroke-opacity="1" stroke-miterlimit="10" d="M 96 384 L 96 320 L 112 320 L 112 384 Z M 96 384 " transform="matrix(1, 0, 0, -1, -63, 769)"/>
<path fill="none" stroke-width="2" stroke-linecap="butt" stroke-linejoin="round" stroke="rgb(0%, 0%, 0%)" stroke-opacity="1" stroke-miterlimit="10" d="M 112 384 L 112 320 L 128 320 L 128 384 Z M 112 384 " transform="matrix(1, 0, 0, -1, -63, 769)"/>
<path fill="none" stroke-width="2" stroke-linecap="butt" stroke-linejoin="round" stroke="rgb(0%, 0%, 0%)" stroke-opacity="1" stroke-miterlimit="10" d="M 128 384 L 128 320 L 192 320 L 192 384 Z M 128 384 " transform="matrix(1, 0, 0, -1, -63, 769)"/>
<path fill="none" stroke-width="2" stroke-linecap="butt" stroke-linejoin="round" stroke="rgb(0%, 0%, 0%)" stroke-opacity="1" stroke-miterlimit="10" d="M 128 384 L 128 368 L 192 368 L 192 384 Z M 128 384 " transform="matrix(1, 0, 0, -1, -63, 769)"/>
<path fill="none" stroke-width="2" stroke-linecap="butt" stroke-linejoin="round" stroke="rgb(0%, 0%, 0%)" stroke-opacity="1" stroke-miterlimit="10" d="M 128 368 L 128 352 L 192 352 L 192 368 Z M 128 368 " transform="matrix(1, 0, 0, -1, -63, 769)"/>
<path fill="none" stroke-width="2" stroke-linecap="butt" stroke-linejoin="round" stroke="rgb(0%, 0%, 0%)" stroke-opacity="1" stroke-miterlimit="10" d="M 128 352 L 128 336 L 192 336 L 192 352 Z M 128 352 " transform="matrix(1, 0, 0, -1, -63, 769)"/>
<path fill="none" stroke-width="2" stroke-linecap="butt" stroke-linejoin="round" stroke="rgb(0%, 0%, 0%)" stroke-opacity="1" stroke-miterlimit="10" d="M 128 336 L 128 320 L 192 320 L 192 336 Z M 128 336 " transform="matrix(1, 0, 0, -1, -63, 769)"/>
<path fill="none" stroke-width="2" stroke-linecap="butt" stroke-linejoin="round" stroke="rgb(0%, 0%, 0%)" stroke-opacity="1" stroke-miterlimit="10" d="M 128 384 L 128 320 L 144 320 L 144 384 Z M 128 384 " transform="matrix(1, 0, 0, -1, -63, 769)"/>
<path fill="none" stroke-width="2" stroke-linecap="butt" stroke-linejoin="round" stroke="rgb(0%, 0%, 0%)" stroke-opacity="1" stroke-miterlimit="10" d="M 144 384 L 144 320 L 160 320 L 160 384 Z M 144 384 " transform="matrix(1, 0, 0, -1, -63, 769)"/>
<path fill="none" stroke-width="2" stroke-linecap="butt" stroke-linejoin="round" stroke="rgb(0%, 0%, 0%)" stroke-opacity="1" stroke-miterlimit="10" d="M 160 384 L 160 320 L 176 320 L 176 384 Z M 160 384 " transform="matrix(1, 0, 0, -1, -63, 769)"/>
<path fill="none" stroke-width="2" stroke-linecap="butt" stroke-linejoin="round" stroke="rgb(0%, 0%, 0%)" stroke-opacity="1" stroke-miterlimit="10" d="M 176 384 L 176 320 L 192 320 L 192 384 Z M 176 384 " transform="matrix(1, 0, 0, -1, -63, 769)"/>
<path fill="none" stroke-width="2" stroke-linecap="butt" stroke-linejoin="round" stroke="rgb(0%, 0%, 0%)" stroke-opacity="1" stroke-miterlimit="10" d="M 192 384 L 192 320 L 256 320 L 256 384 Z M 192 384 " transform="matrix(1, 0, 0, -1, -63, 769)"/>
<path fill="none" stroke-width="2" stroke-linecap="butt" stroke-linejoin="round" stroke="rgb(0%, 0%, 0%)" stroke-opacity="1" stroke-miterlimit="10" d="M 192 384 L 192 368 L 256 368 L 256 384 Z M 192 384 " transform="matrix(1, 0, 0, -1, -63, 769)"/>
<path fill="none" stroke-width="2" stroke-linecap="butt" stroke-linejoin="round" stroke="rgb(0%, 0%, 0%)" stroke-opacity="1" stroke-miterlimit="10" d="M 192 368 L 192 352 L 256 352 L 256 368 Z M 192 368 " transform="matrix(1, 0, 0, -1, -63, 769)"/>
<path fill="none" stroke-width="2" stroke-linecap="butt" stroke-linejoin="round" stroke="rgb(0%, 0%, 0%)" stroke-opacity="1" stroke-miterlimit="10" d="M 192 352 L 192 336 L 256 336 L 256 352 Z M 192 352 " transform="matrix(1, 0, 0, -1, -63, 769)"/>
<path fill="none" stroke-width="2" stroke-linecap="butt" stroke-linejoin="round" stroke="rgb(0%, 0%, 0%)" stroke-opacity="1" stroke-miterlimit="10" d="M 192 336 L 192 320 L 256 320 L 256 336 Z M 192 336 " transform="matrix(1, 0, 0, -1, -63, 769)"/>
<path fill="none" stroke-width="2" stroke-linecap="butt" stroke-linejoin="round" stroke="rgb(0%, 0%, 0%)" stroke-opacity="1" stroke-miterlimit="10" d="M 192 384 L 192 320 L 208 320 L 208 384 Z M 192 384 " transform="matrix(1, 0, 0, -1, -63, 769)"/>
<path fill="none" stroke-width="2" stroke-linecap="butt" stroke-linejoin="round" stroke="rgb(0%, 0%, 0%)" stroke-opacity="1" stroke-miterlimit="10" d="M 208 384 L 208 320 L 224 320 L 224 384 Z M 208 384 " transform="matrix(1, 0, 0, -1, -63, 769)"/>
<path fill="none" stroke-width="2" stroke-linecap="butt" stroke-linejoin="round" stroke="rgb(0%, 0%, 0%)" stroke-opacity="1" stroke-miterlimit="10" d="M 224 384 L 224 320 L 240 320 L 240 384 Z M 224 384 " transform="matrix(1, 0, 0, -1, -63, 769)"/>
<path fill="none" stroke-width="2" stroke-linecap="butt" stroke-linejoin="round" stroke="rgb(0%, 0%, 0%)" stroke-opacity="1" stroke-miterlimit="10" d="M 240 384 L 240 320 L 256 320 L 256 384 Z M 240 384 " transform="matrix(1, 0, 0, -1, -63, 769)"/>
<path fill="none" stroke-width="2" stroke-linecap="butt" stroke-linejoin="round" stroke="rgb(0%, 0%, 0%)" stroke-opacity="1" stroke-miterlimit="10" d="M 256 384 L 256 320 L 320 320 L 320 384 Z M 256 384 " transform="matrix(1, 0, 0, -1, -63, 769)"/>
<path fill="none" stroke-width="2" stroke-linecap="butt" stroke-linejoin="round" stroke="rgb(0%, 0%, 0%)" stroke-opacity="1" stroke-miterlimit="10" d="M 256 384 L 256 368 L 320 368 L 320 384 Z M 256 384 " transform="matrix(1, 0, 0, -1, -63, 769)"/>
<path fill="none" stroke-width="2" stroke-linecap="butt" stroke-linejoin="round" stroke="rgb(0%, 0%, 0%)" stroke-opacity="1" stroke-miterlimit="10" d="M 256 368 L 256 352 L 320 352 L 320 368 Z M 256 368 " transform="matrix(1, 0, 0, -1, -63, 769)"/>
<path fill="none" stroke-width="2" stroke-linecap="butt" stroke-linejoin="round" stroke="rgb(0%, 0%, 0%)" stroke-opacity="1" stroke-miterlimit="10" d="M 256 352 L 256 336 L 320 336 L 320 352 Z M 256 352 " transform="matrix(1, 0, 0, -1, -63, 769)"/>
<path fill="none" stroke-width="2" stroke-linecap="butt" stroke-linejoin="round" stroke="rgb(0%, 0%, 0%)" stroke-opacity="1" stroke-miterlimit="10" d="M 256 336 L 256 320 L 320 320 L 320 336 Z M 256 336 " transform="matrix(1, 0, 0, -1, -63, 769)"/>
<path fill="none" stroke-width="2" stroke-linecap="butt" stroke-linejoin="round" stroke="rgb(0%, 0%, 0%)" stroke-opacity="1" stroke-miterlimit="10" d="M 256 384 L 256 320 L 272 320 L 272 384 Z M 256 384 " transform="matrix(1, 0, 0, -1, -63, 769)"/>
<path fill="none" stroke-width="2" stroke-linecap="butt" stroke-linejoin="round" stroke="rgb(0%, 0%, 0%)" stroke-opacity="1" stroke-miterlimit="10" d="M 272 384 L 272 320 L 288 320 L 288 384 Z M 272 384 " transform="matrix(1, 0, 0, -1, -63, 769)"/>
<path fill="none" stroke-width="2" stroke-linecap="butt" stroke-linejoin="round" stroke="rgb(0%, 0%, 0%)" stroke-opacity="1" stroke-miterlimit="10" d="M 288 384 L 288 320 L 304 320 L 304 384 Z M 288 384 " transform="matrix(1, 0, 0, -1, -63, 769)"/>
<path fill="none" stroke-width="2" stroke-linecap="butt" stroke-linejoin="round" stroke="rgb(0%, 0%, 0%)" stroke-opacity="1" stroke-miterlimit="10" d="M 304 384 L 304 320 L 320 320 L 320 384 Z M 304 384 " transform="matrix(1, 0, 0, -1, -63, 769)"/>
<path fill="none" stroke-width="2" stroke-linecap="butt" stroke-linejoin="round" stroke="rgb(0%, 0%, 0%)" stroke-opacity="1" stroke-miterlimit="10" d="M 320 384 L 320 320 L 384 320 L 384 384 Z M 320 384 " transform="matrix(1, 0, 0, -1, -63, 769)"/>
<path fill="none" stroke-width="2" stroke-linecap="butt" stroke-linejoin="round" stroke="rgb(0%, 0%, 0%)" stroke-opacity="1" stroke-miterlimit="10" d="M 320 384 L 320 368 L 384 368 L 384 384 Z M 320 384 " transform="matrix(1, 0, 0, -1, -63, 769)"/>
<path fill="none" stroke-width="2" stroke-linecap="butt" stroke-linejoin="round" stroke="rgb(0%, 0%, 0%)" stroke-opacity="1" stroke-miterlimit="10" d="M 320 368 L 320 352 L 384 352 L 384 368 Z M 320 368 " transform="matrix(1, 0, 0, -1, -63, 769)"/>
<path fill="none" stroke-width="2" stroke-linecap="butt" stroke-linejoin="round" stroke="rgb(0%, 0%, 0%)" stroke-opacity="1" stroke-miterlimit="10" d="M 320 352 L 320 336 L 384 336 L 384 352 Z M 320 352 " transform="matrix(1, 0, 0, -1, -63, 769)"/>
<path fill="none" stroke-width="2" stroke-linecap="butt" stroke-linejoin="round" stroke="rgb(0%, 0%, 0%)" stroke-opacity="1" stroke-miterlimit="10" d="M 320 336 L 320 320 L 384 320 L 384 336 Z M 320 336 " transform="matrix(1, 0, 0, -1, -63, 769)"/>
<path fill="none" stroke-width="2" stroke-linecap="butt" stroke-linejoin="round" stroke="rgb(0%, 0%, 0%)" stroke-opacity="1" stroke-miterlimit="10" d="M 320 384 L 320 320 L 336 320 L 336 384 Z M 320 384 " transform="matrix(1, 0, 0, -1, -63, 769)"/>
<path fill="none" stroke-width="2" stroke-linecap="butt" stroke-linejoin="round" stroke="rgb(0%, 0%, 0%)" stroke-opacity="1" stroke-miterlimit="10" d="M 336 384 L 336 320 L 352 320 L 352 384 Z M 336 384 " transform="matrix(1, 0, 0, -1, -63, 769)"/>
<path fill="none" stroke-width="2" stroke-linecap="butt" stroke-linejoin="round" stroke="rgb(0%, 0%, 0%)" stroke-opacity="1" stroke-miterlimit="10" d="M 352 384 L 352 320 L 368 320 L 368 384 Z M 352 384 " transform="matrix(1, 0, 0, -1, -63, 769)"/>
<path fill="none" stroke-width="2" stroke-linecap="butt" stroke-linejoin="round" stroke="rgb(0%, 0%, 0%)" stroke-opacity="1" stroke-miterlimit="10" d="M 368 384 L 368 320 L 384 320 L 384 384 Z M 368 384 " transform="matrix(1, 0, 0, -1, -63, 769)"/>
<path fill="none" stroke-width="2" stroke-linecap="butt" stroke-linejoin="round" stroke="rgb(0%, 0%, 0%)" stroke-opacity="1" stroke-miterlimit="10" d="M 384 384 L 384 320 L 448 320 L 448 384 Z M 384 384 " transform="matrix(1, 0, 0, -1, -63, 769)"/>
<path fill="none" stroke-width="2" stroke-linecap="butt" stroke-linejoin="round" stroke="rgb(0%, 0%, 0%)" stroke-opacity="1" stroke-miterlimit="10" d="M 384 384 L 384 368 L 448 368 L 448 384 Z M 384 384 " transform="matrix(1, 0, 0, -1, -63, 769)"/>
<path fill="none" stroke-width="2" stroke-linecap="butt" stroke-linejoin="round" stroke="rgb(0%, 0%, 0%)" stroke-opacity="1" stroke-miterlimit="10" d="M 384 368 L 384 352 L 448 352 L 448 368 Z M 384 368 " transform="matrix(1, 0, 0, -1, -63, 769)"/>
<path fill="none" stroke-width="2" stroke-linecap="butt" stroke-linejoin="round" stroke="rgb(0%, 0%, 0%)" stroke-opacity="1" stroke-miterlimit="10" d="M 384 352 L 384 336 L 448 336 L 448 352 Z M 384 352 " transform="matrix(1, 0, 0, -1, -63, 769)"/>
<path fill="none" stroke-width="2" stroke-linecap="butt" stroke-linejoin="round" stroke="rgb(0%, 0%, 0%)" stroke-opacity="1" stroke-miterlimit="10" d="M 384 336 L 384 320 L 448 320 L 448 336 Z M 384 336 " transform="matrix(1, 0, 0, -1, -63, 769)"/>
<path fill="none" stroke-width="2" stroke-linecap="butt" stroke-linejoin="round" stroke="rgb(0%, 0%, 0%)" stroke-opacity="1" stroke-miterlimit="10" d="M 384 384 L 384 320 L 400 320 L 400 384 Z M 384 384 " transform="matrix(1, 0, 0, -1, -63, 769)"/>
<path fill="none" stroke-width="2" stroke-linecap="butt" stroke-linejoin="round" stroke="rgb(0%, 0%, 0%)" stroke-opacity="1" stroke-miterlimit="10" d="M 400 384 L 400 320 L 416 320 L 416 384 Z M 400 384 " transform="matrix(1, 0, 0, -1, -63, 769)"/>
<path fill="none" stroke-width="2" stroke-linecap="butt" stroke-linejoin="round" stroke="rgb(0%, 0%, 0%)" stroke-opacity="1" stroke-miterlimit="10" d="M 416 384 L 416 320 L 432 320 L 432 384 Z M 416 384 " transform="matrix(1, 0, 0, -1, -63, 769)"/>
<path fill="none" stroke-width="2" stroke-linecap="butt" stroke-linejoin="round" stroke="rgb(0%, 0%, 0%)" stroke-opacity="1" stroke-miterlimit="10" d="M 432 384 L 432 320 L 448 320 L 448 384 Z M 432 384 " transform="matrix(1, 0, 0, -1, -63, 769)"/>
<path fill="none" stroke-width="2" stroke-linecap="butt" stroke-linejoin="round" stroke="rgb(0%, 0%, 0%)" stroke-opacity="1" stroke-miterlimit="10" d="M 448 384 L 448 320 L 512 320 L 512 384 Z M 448 384 " transform="matrix(1, 0, 0, -1, -63, 769)"/>
<path fill="none" stroke-width="2" stroke-linecap="butt" stroke-linejoin="round" stroke="rgb(0%, 0%, 0%)" stroke-opacity="1" stroke-miterlimit="10" d="M 448 384 L 448 368 L 512 368 L 512 384 Z M 448 384 " transform="matrix(1, 0, 0, -1, -63, 769)"/>
<path fill="none" stroke-width="2" stroke-linecap="butt" stroke-linejoin="round" stroke="rgb(0%, 0%, 0%)" stroke-opacity="1" stroke-miterlimit="10" d="M 448 368 L 448 352 L 512 352 L 512 368 Z M 448 368 " transform="matrix(1, 0, 0, -1, -63, 769)"/>
<path fill="none" stroke-width="2" stroke-linecap="butt" stroke-linejoin="round" stroke="rgb(0%, 0%, 0%)" stroke-opacity="1" stroke-miterlimit="10" d="M 448 352 L 448 336 L 512 336 L 512 352 Z M 448 352 " transform="matrix(1, 0, 0, -1, -63, 769)"/>
<path fill="none" stroke-width="2" stroke-linecap="butt" stroke-linejoin="round" stroke="rgb(0%, 0%, 0%)" stroke-opacity="1" stroke-miterlimit="10" d="M 448 336 L 448 320 L 512 320 L 512 336 Z M 448 336 " transform="matrix(1, 0, 0, -1, -63, 769)"/>
<path fill="none" stroke-width="2" stroke-linecap="butt" stroke-linejoin="round" stroke="rgb(0%, 0%, 0%)" stroke-opacity="1" stroke-miterlimit="10" d="M 448 384 L 448 320 L 464 320 L 464 384 Z M 448 384 " transform="matrix(1, 0, 0, -1, -63, 769)"/>
<path fill="none" stroke-width="2" stroke-linecap="butt" stroke-linejoin="round" stroke="rgb(0%, 0%, 0%)" stroke-opacity="1" stroke-miterlimit="10" d="M 464 384 L 464 320 L 480 320 L 480 384 Z M 464 384 " transform="matrix(1, 0, 0, -1, -63, 769)"/>
<path fill="none" stroke-width="2" stroke-linecap="butt" stroke-linejoin="round" stroke="rgb(0%, 0%, 0%)" stroke-opacity="1" stroke-miterlimit="10" d="M 480 384 L 480 320 L 496 320 L 496 384 Z M 480 384 " transform="matrix(1, 0, 0, -1, -63, 769)"/>
<path fill="none" stroke-width="2" stroke-linecap="butt" stroke-linejoin="round" stroke="rgb(0%, 0%, 0%)" stroke-opacity="1" stroke-miterlimit="10" d="M 496 384 L 496 320 L 512 320 L 512 384 Z M 496 384 " transform="matrix(1, 0, 0, -1, -63, 769)"/>
<path fill="none" stroke-width="2" stroke-linecap="butt" stroke-linejoin="round" stroke="rgb(0%, 0%, 0%)" stroke-opacity="1" stroke-miterlimit="10" d="M 512 384 L 512 320 L 576 320 L 576 384 Z M 512 384 " transform="matrix(1, 0, 0, -1, -63, 769)"/>
<path fill="none" stroke-width="2" stroke-linecap="butt" stroke-linejoin="round" stroke="rgb(0%, 0%, 0%)" stroke-opacity="1" stroke-miterlimit="10" d="M 512 384 L 512 368 L 576 368 L 576 384 Z M 512 384 " transform="matrix(1, 0, 0, -1, -63, 769)"/>
<path fill="none" stroke-width="2" stroke-linecap="butt" stroke-linejoin="round" stroke="rgb(0%, 0%, 0%)" stroke-opacity="1" stroke-miterlimit="10" d="M 512 368 L 512 352 L 576 352 L 576 368 Z M 512 368 " transform="matrix(1, 0, 0, -1, -63, 769)"/>
<path fill="none" stroke-width="2" stroke-linecap="butt" stroke-linejoin="round" stroke="rgb(0%, 0%, 0%)" stroke-opacity="1" stroke-miterlimit="10" d="M 512 352 L 512 336 L 576 336 L 576 352 Z M 512 352 " transform="matrix(1, 0, 0, -1, -63, 769)"/>
<path fill="none" stroke-width="2" stroke-linecap="butt" stroke-linejoin="round" stroke="rgb(0%, 0%, 0%)" stroke-opacity="1" stroke-miterlimit="10" d="M 512 336 L 512 320 L 576 320 L 576 336 Z M 512 336 " transform="matrix(1, 0, 0, -1, -63, 769)"/>
<path fill="none" stroke-width="2" stroke-linecap="butt" stroke-linejoin="round" stroke="rgb(0%, 0%, 0%)" stroke-opacity="1" stroke-miterlimit="10" d="M 512 384 L 512 320 L 528 320 L 528 384 Z M 512 384 " transform="matrix(1, 0, 0, -1, -63, 769)"/>
<path fill="none" stroke-width="2" stroke-linecap="butt" stroke-linejoin="round" stroke="rgb(0%, 0%, 0%)" stroke-opacity="1" stroke-miterlimit="10" d="M 528 384 L 528 320 L 544 320 L 544 384 Z M 528 384 " transform="matrix(1, 0, 0, -1, -63, 769)"/>
<path fill="none" stroke-width="2" stroke-linecap="butt" stroke-linejoin="round" stroke="rgb(0%, 0%, 0%)" stroke-opacity="1" stroke-miterlimit="10" d="M 544 384 L 544 320 L 560 320 L 560 384 Z M 544 384 " transform="matrix(1, 0, 0, -1, -63, 769)"/>
<path fill="none" stroke-width="2" stroke-linecap="butt" stroke-linejoin="round" stroke="rgb(0%, 0%, 0%)" stroke-opacity="1" stroke-miterlimit="10" d="M 560 384 L 560 320 L 576 320 L 576 384 Z M 560 384 " transform="matrix(1, 0, 0, -1, -63, 769)"/>
<path fill="none" stroke-width="2" stroke-linecap="butt" stroke-linejoin="round" stroke="rgb(0%, 0%, 0%)" stroke-opacity="1" stroke-miterlimit="10" d="M 96 496 L 96 400 " transform="matrix(1, 0, 0, -1, -63, 769)"/>
<path fill-rule="evenodd" fill="rgb(0%, 0%, 0%)" fill-opacity="1" stroke-width="2" stroke-linecap="butt" stroke-linejoin="round" stroke="rgb(0%, 0%, 0%)" stroke-opacity="1" stroke-miterlimit="10" d="M 96 400 L 98.332031 407 L 93.667969 407 Z M 96 400 " transform="matrix(1, 0, 0, -1, -63, 769)"/>
<path fill="none" stroke-width="2" stroke-linecap="butt" stroke-linejoin="round" stroke="rgb(0%, 0%, 0%)" stroke-opacity="1" stroke-miterlimit="10" d="M 160 496 L 160 400 " transform="matrix(1, 0, 0, -1, -63, 769)"/>
<path fill-rule="evenodd" fill="rgb(0%, 0%, 0%)" fill-opacity="1" stroke-width="2" stroke-linecap="butt" stroke-linejoin="round" stroke="rgb(0%, 0%, 0%)" stroke-opacity="1" stroke-miterlimit="10" d="M 160 400 L 162.332031 407 L 157.667969 407 Z M 160 400 " transform="matrix(1, 0, 0, -1, -63, 769)"/>
<path fill="none" stroke-width="2" stroke-linecap="butt" stroke-linejoin="round" stroke="rgb(0%, 0%, 0%)" stroke-opacity="1" stroke-miterlimit="10" d="M 224 496 L 224 400 " transform="matrix(1, 0, 0, -1, -63, 769)"/>
<path fill-rule="evenodd" fill="rgb(0%, 0%, 0%)" fill-opacity="1" stroke-width="2" stroke-linecap="butt" stroke-linejoin="round" stroke="rgb(0%, 0%, 0%)" stroke-opacity="1" stroke-miterlimit="10" d="M 224 400 L 226.332031 407 L 221.667969 407 Z M 224 400 " transform="matrix(1, 0, 0, -1, -63, 769)"/>
<path fill="none" stroke-width="2" stroke-linecap="butt" stroke-linejoin="round" stroke="rgb(0%, 0%, 0%)" stroke-opacity="1" stroke-miterlimit="10" d="M 288 496 L 288 400 " transform="matrix(1, 0, 0, -1, -63, 769)"/>
<path fill-rule="evenodd" fill="rgb(0%, 0%, 0%)" fill-opacity="1" stroke-width="2" stroke-linecap="butt" stroke-linejoin="round" stroke="rgb(0%, 0%, 0%)" stroke-opacity="1" stroke-miterlimit="10" d="M 288 400 L 290.332031 407 L 285.667969 407 Z M 288 400 " transform="matrix(1, 0, 0, -1, -63, 769)"/>
<path fill="none" stroke-width="2" stroke-linecap="butt" stroke-linejoin="round" stroke="rgb(0%, 0%, 0%)" stroke-opacity="1" stroke-miterlimit="10" d="M 352 496 L 352 400 " transform="matrix(1, 0, 0, -1, -63, 769)"/>
<path fill-rule="evenodd" fill="rgb(0%, 0%, 0%)" fill-opacity="1" stroke-width="2" stroke-linecap="butt" stroke-linejoin="round" stroke="rgb(0%, 0%, 0%)" stroke-opacity="1" stroke-miterlimit="10" d="M 352 400 L 354.332031 407 L 349.667969 407 Z M 352 400 " transform="matrix(1, 0, 0, -1, -63, 769)"/>
<path fill="none" stroke-width="2" stroke-linecap="butt" stroke-linejoin="round" stroke="rgb(0%, 0%, 0%)" stroke-opacity="1" stroke-miterlimit="10" d="M 416 496 L 416 400 " transform="matrix(1, 0, 0, -1, -63, 769)"/>
<path fill-rule="evenodd" fill="rgb(0%, 0%, 0%)" fill-opacity="1" stroke-width="2" stroke-linecap="butt" stroke-linejoin="round" stroke="rgb(0%, 0%, 0%)" stroke-opacity="1" stroke-miterlimit="10" d="M 416 400 L 418.332031 407 L 413.667969 407 Z M 416 400 " transform="matrix(1, 0, 0, -1, -63, 769)"/>
<path fill="none" stroke-width="2" stroke-linecap="butt" stroke-linejoin="round" stroke="rgb(0%, 0%, 0%)" stroke-opacity="1" stroke-miterlimit="10" d="M 480 496 L 480 400 " transform="matrix(1, 0, 0, -1, -63, 769)"/>
<path fill-rule="evenodd" fill="rgb(0%, 0%, 0%)" fill-opacity="1" stroke-width="2" stroke-linecap="butt" stroke-linejoin="round" stroke="rgb(0%, 0%, 0%)" stroke-opacity="1" stroke-miterlimit="10" d="M 480 400 L 482.332031 407 L 477.667969 407 Z M 480 400 " transform="matrix(1, 0, 0, -1, -63, 769)"/>
<path fill="none" stroke-width="2" stroke-linecap="butt" stroke-linejoin="round" stroke="rgb(0%, 0%, 0%)" stroke-opacity="1" stroke-miterlimit="10" d="M 544 496 L 544 400 " transform="matrix(1, 0, 0, -1, -63, 769)"/>
<path fill-rule="evenodd" fill="rgb(0%, 0%, 0%)" fill-opacity="1" stroke-width="2" stroke-linecap="butt" stroke-linejoin="round" stroke="rgb(0%, 0%, 0%)" stroke-opacity="1" stroke-miterlimit="10" d="M 544 400 L 546.332031 407 L 541.667969 407 Z M 544 400 " transform="matrix(1, 0, 0, -1, -63, 769)"/>
</svg>
