<?xml version="1.0" encoding="UTF-8"?>
<svg xmlns="http://www.w3.org/2000/svg" xmlns:xlink="http://www.w3.org/1999/xlink" width="594" height="450" viewBox="0 0 594 450">
<defs>
<clipPath id="clip-0">
<path clip-rule="nonzero" d="M 1 1 L 386 1 L 386 449 L 1 449 Z M 1 1 "/>
</clipPath>
<clipPath id="clip-1">
<path clip-rule="nonzero" d="M 1 1 L 322 1 L 322 386 L 1 386 Z M 1 1 "/>
</clipPath>
</defs>
<path fill-rule="evenodd" fill="rgb(0%, 0%, 0%)" fill-opacity="1" d="M 226.800781 65 C 226.800781 62.601563 223.199219 62.601563 223.199219 65 C 223.199219 67.398438 226.800781 67.398438 226.800781 65 Z M 226.800781 65 "/>
<path fill-rule="evenodd" fill="rgb(0%, 0%, 0%)" fill-opacity="1" d="M 306.800781 17 C 306.800781 14.601563 303.199219 14.601563 303.199219 17 C 303.199219 19.398438 306.800781 19.398438 306.800781 17 Z M 306.800781 17 "/>
<path fill-rule="evenodd" fill="rgb(0%, 0%, 0%)" fill-opacity="1" d="M 162.800781 129 C 162.800781 126.601563 159.199219 126.601563 159.199219 129 C 159.199219 131.398438 162.800781 131.398438 162.800781 129 Z M 162.800781 129 "/>
<path fill-rule="evenodd" fill="rgb(0%, 0%, 0%)" fill-opacity="1" d="M 178.800781 49 C 178.800781 46.601563 175.199219 46.601563 175.199219 49 C 175.199219 51.398438 178.800781 51.398438 178.800781 49 Z M 178.800781 49 "/>
<path fill-rule="evenodd" fill="rgb(0%, 0%, 0%)" fill-opacity="1" d="M 162.800781 17 C 162.800781 14.601563 159.199219 14.601563 159.199219 17 C 159.199219 19.398438 162.800781 19.398438 162.800781 17 Z M 162.800781 17 "/>
<path fill-rule="evenodd" fill="rgb(0%, 0%, 0%)" fill-opacity="1" d="M 114.800781 33 C 114.800781 30.601563 111.199219 30.601563 111.199219 33 C 111.199219 35.398438 114.800781 35.398438 114.800781 33 Z M 114.800781 33 "/>
<path fill-rule="evenodd" fill="rgb(0%, 0%, 0%)" fill-opacity="1" d="M 114.800781 113 C 114.800781 110.601563 111.199219 110.601563 111.199219 113 C 111.199219 115.398438 114.800781 115.398438 114.800781 113 Z M 114.800781 113 "/>
<path fill-rule="evenodd" fill="rgb(0%, 0%, 0%)" fill-opacity="1" d="M 66.800781 225 C 66.800781 222.601563 63.199219 222.601563 63.199219 225 C 63.199219 227.398438 66.800781 227.398438 66.800781 225 Z M 66.800781 225 "/>
<path fill-rule="evenodd" fill="rgb(0%, 0%, 0%)" fill-opacity="1" d="M 146.800781 305 C 146.800781 302.601563 143.199219 302.601563 143.199219 305 C 143.199219 307.398438 146.800781 307.398438 146.800781 305 Z M 146.800781 305 "/>
<path fill-rule="evenodd" fill="rgb(0%, 0%, 0%)" fill-opacity="1" d="M 338.800781 321 C 338.800781 318.601563 335.199219 318.601563 335.199219 321 C 335.199219 323.398438 338.800781 323.398438 338.800781 321 Z M 338.800781 321 "/>
<path fill-rule="evenodd" fill="rgb(0%, 0%, 0%)" fill-opacity="1" d="M 306.800781 225 C 306.800781 222.601563 303.199219 222.601563 303.199219 225 C 303.199219 227.398438 306.800781 227.398438 306.800781 225 Z M 306.800781 225 "/>
<path fill-rule="evenodd" fill="rgb(0%, 0%, 0%)" fill-opacity="1" d="M 194.800781 209 C 194.800781 206.601563 191.199219 206.601563 191.199219 209 C 191.199219 211.398438 194.800781 211.398438 194.800781 209 Z M 194.800781 209 "/>
<path fill-rule="evenodd" fill="rgb(0%, 0%, 0%)" fill-opacity="1" d="M 226.800781 321 C 226.800781 318.601563 223.199219 318.601563 223.199219 321 C 223.199219 323.398438 226.800781 323.398438 226.800781 321 Z M 226.800781 321 "/>
<path fill-rule="evenodd" fill="rgb(0%, 0%, 0%)" fill-opacity="1" d="M 130.800781 241 C 130.800781 238.601563 127.199219 238.601563 127.199219 241 C 127.199219 243.398438 130.800781 243.398438 130.800781 241 Z M 130.800781 241 "/>
<path fill-rule="evenodd" fill="rgb(0%, 0%, 0%)" fill-opacity="1" d="M 274.800781 193 C 274.800781 190.601563 271.199219 190.601563 271.199219 193 C 271.199219 195.398438 274.800781 195.398438 274.800781 193 Z M 274.800781 193 "/>
<path fill-rule="evenodd" fill="rgb(0%, 0%, 0%)" fill-opacity="1" d="M 258.800781 273 C 258.800781 270.601563 255.199219 270.601563 255.199219 273 C 255.199219 275.398438 258.800781 275.398438 258.800781 273 Z M 258.800781 273 "/>
<path fill-rule="evenodd" fill="rgb(0%, 0%, 0%)" fill-opacity="1" d="M 242.800781 145 C 242.800781 142.601563 239.199219 142.601563 239.199219 145 C 239.199219 147.398438 242.800781 147.398438 242.800781 145 Z M 242.800781 145 "/>
<path fill-rule="evenodd" fill="rgb(0%, 0%, 0%)" fill-opacity="1" d="M 402.800781 129 C 402.800781 126.601563 399.199219 126.601563 399.199219 129 C 399.199219 131.398438 402.800781 131.398438 402.800781 129 Z M 402.800781 129 "/>
<path fill-rule="evenodd" fill="rgb(0%, 0%, 0%)" fill-opacity="1" d="M 466.800781 209 C 466.800781 206.601563 463.199219 206.601563 463.199219 209 C 463.199219 211.398438 466.800781 211.398438 466.800781 209 Z M 466.800781 209 "/>
<path fill-rule="evenodd" fill="rgb(0%, 0%, 0%)" fill-opacity="1" d="M 450.800781 273 C 450.800781 270.601563 447.199219 270.601563 447.199219 273 C 447.199219 275.398438 450.800781 275.398438 450.800781 273 Z M 450.800781 273 "/>
<path fill-rule="evenodd" fill="rgb(0%, 0%, 0%)" fill-opacity="1" d="M 466.800781 353 C 466.800781 350.601563 463.199219 350.601563 463.199219 353 C 463.199219 355.398438 466.800781 355.398438 466.800781 353 Z M 466.800781 353 "/>
<path fill-rule="evenodd" fill="rgb(0%, 0%, 0%)" fill-opacity="1" d="M 578.800781 337 C 578.800781 334.601563 575.199219 334.601563 575.199219 337 C 575.199219 339.398438 578.800781 339.398438 578.800781 337 Z M 578.800781 337 "/>
<path fill-rule="evenodd" fill="rgb(0%, 0%, 0%)" fill-opacity="1" d="M 546.800781 289 C 546.800781 286.601563 543.199219 286.601563 543.199219 289 C 543.199219 291.398438 546.800781 291.398438 546.800781 289 Z M 546.800781 289 "/>
<path fill-rule="evenodd" fill="rgb(0%, 0%, 0%)" fill-opacity="1" d="M 434.800781 289 C 434.800781 286.601563 431.199219 286.601563 431.199219 289 C 431.199219 291.398438 434.800781 291.398438 434.800781 289 Z M 434.800781 289 "/>
<path fill-rule="evenodd" fill="rgb(0%, 0%, 0%)" fill-opacity="1" d="M 386.800781 289 C 386.800781 286.601563 383.199219 286.601563 383.199219 289 C 383.199219 291.398438 386.800781 291.398438 386.800781 289 Z M 386.800781 289 "/>
<path fill-rule="evenodd" fill="rgb(0%, 0%, 0%)" fill-opacity="1" d="M 402.800781 225 C 402.800781 222.601563 399.199219 222.601563 399.199219 225 C 399.199219 227.398438 402.800781 227.398438 402.800781 225 Z M 402.800781 225 "/>
<path fill-rule="evenodd" fill="rgb(0%, 0%, 0%)" fill-opacity="1" d="M 386.800781 193 C 386.800781 190.601563 383.199219 190.601563 383.199219 193 C 383.199219 195.398438 386.800781 195.398438 386.800781 193 Z M 386.800781 193 "/>
<path fill-rule="evenodd" fill="rgb(0%, 0%, 0%)" fill-opacity="1" d="M 354.800781 193 C 354.800781 190.601563 351.199219 190.601563 351.199219 193 C 351.199219 195.398438 354.800781 195.398438 354.800781 193 Z M 354.800781 193 "/>
<path fill-rule="evenodd" fill="rgb(0%, 0%, 0%)" fill-opacity="1" d="M 338.800781 161 C 338.800781 158.601563 335.199219 158.601563 335.199219 161 C 335.199219 163.398438 338.800781 163.398438 338.800781 161 Z M 338.800781 161 "/>
<path fill-rule="evenodd" fill="rgb(0%, 0%, 0%)" fill-opacity="1" d="M 354.800781 145 C 354.800781 142.601563 351.199219 142.601563 351.199219 145 C 351.199219 147.398438 354.800781 147.398438 354.800781 145 Z M 354.800781 145 "/>
<path fill-rule="evenodd" fill="rgb(0%, 0%, 0%)" fill-opacity="1" d="M 306.800781 113 C 306.800781 110.601563 303.199219 110.601563 303.199219 113 C 303.199219 115.398438 306.800781 115.398438 306.800781 113 Z M 306.800781 113 "/>
<path fill-rule="evenodd" fill="rgb(0%, 0%, 0%)" fill-opacity="1" d="M 258.800781 97 C 258.800781 94.601563 255.199219 94.601563 255.199219 97 C 255.199219 99.398438 258.800781 99.398438 258.800781 97 Z M 258.800781 97 "/>
<path fill-rule="evenodd" fill="rgb(0%, 0%, 0%)" fill-opacity="1" d="M 338.800781 81 C 338.800781 78.601563 335.199219 78.601563 335.199219 81 C 335.199219 83.398438 338.800781 83.398438 338.800781 81 Z M 338.800781 81 "/>
<path fill-rule="evenodd" fill="rgb(0%, 0%, 0%)" fill-opacity="1" d="M 418.800781 65 C 418.800781 62.601563 415.199219 62.601563 415.199219 65 C 415.199219 67.398438 418.800781 67.398438 418.800781 65 Z M 418.800781 65 "/>
<path fill-rule="evenodd" fill="rgb(0%, 0%, 0%)" fill-opacity="1" d="M 354.800781 17 C 354.800781 14.601563 351.199219 14.601563 351.199219 17 C 351.199219 19.398438 354.800781 19.398438 354.800781 17 Z M 354.800781 17 "/>
<path fill-rule="evenodd" fill="rgb(0%, 0%, 0%)" fill-opacity="1" d="M 418.800781 17 C 418.800781 14.601563 415.199219 14.601563 415.199219 17 C 415.199219 19.398438 418.800781 19.398438 418.800781 17 Z M 418.800781 17 "/>
<path fill-rule="evenodd" fill="rgb(0%, 0%, 0%)" fill-opacity="1" d="M 514.800781 65 C 514.800781 62.601563 511.199219 62.601563 511.199219 65 C 511.199219 67.398438 514.800781 67.398438 514.800781 65 Z M 514.800781 65 "/>
<path fill-rule="evenodd" fill="rgb(0%, 0%, 0%)" fill-opacity="1" d="M 498.800781 97 C 498.800781 94.601563 495.199219 94.601563 495.199219 97 C 495.199219 99.398438 498.800781 99.398438 498.800781 97 Z M 498.800781 97 "/>
<path fill-rule="evenodd" fill="rgb(0%, 0%, 0%)" fill-opacity="1" d="M 466.800781 113 C 466.800781 110.601563 463.199219 110.601563 463.199219 113 C 463.199219 115.398438 466.800781 115.398438 466.800781 113 Z M 466.800781 113 "/>
<path fill-rule="evenodd" fill="rgb(0%, 0%, 0%)" fill-opacity="1" d="M 450.800781 145 C 450.800781 142.601563 447.199219 142.601563 447.199219 145 C 447.199219 147.398438 450.800781 147.398438 450.800781 145 Z M 450.800781 145 "/>
<path fill-rule="evenodd" fill="rgb(0%, 0%, 0%)" fill-opacity="1" d="M 482.800781 161 C 482.800781 158.601563 479.199219 158.601563 479.199219 161 C 479.199219 163.398438 482.800781 163.398438 482.800781 161 Z M 482.800781 161 "/>
<path fill-rule="evenodd" fill="rgb(0%, 0%, 0%)" fill-opacity="1" d="M 546.800781 193 C 546.800781 190.601563 543.199219 190.601563 543.199219 193 C 543.199219 195.398438 546.800781 195.398438 546.800781 193 Z M 546.800781 193 "/>
<path fill-rule="evenodd" fill="rgb(0%, 0%, 0%)" fill-opacity="1" d="M 530.800781 225 C 530.800781 222.601563 527.199219 222.601563 527.199219 225 C 527.199219 227.398438 530.800781 227.398438 530.800781 225 Z M 530.800781 225 "/>
<path fill-rule="evenodd" fill="rgb(0%, 0%, 0%)" fill-opacity="1" d="M 242.800781 385 C 242.800781 382.601563 239.199219 382.601563 239.199219 385 C 239.199219 387.398438 242.800781 387.398438 242.800781 385 Z M 242.800781 385 "/>
<path fill-rule="evenodd" fill="rgb(0%, 0%, 0%)" fill-opacity="1" d="M 242.800781 385 C 242.800781 382.601563 239.199219 382.601563 239.199219 385 C 239.199219 387.398438 242.800781 387.398438 242.800781 385 Z M 242.800781 385 "/>
<path fill-rule="evenodd" fill="rgb(0%, 0%, 0%)" fill-opacity="1" d="M 34.800781 321 C 34.800781 318.601563 31.199219 318.601563 31.199219 321 C 31.199219 323.398438 34.800781 323.398438 34.800781 321 Z M 34.800781 321 "/>
<path fill-rule="evenodd" fill="rgb(0%, 0%, 0%)" fill-opacity="1" d="M 98.800781 401 C 98.800781 398.601563 95.199219 398.601563 95.199219 401 C 95.199219 403.398438 98.800781 403.398438 98.800781 401 Z M 98.800781 401 "/>
<path fill-rule="evenodd" fill="rgb(0%, 0%, 0%)" fill-opacity="1" d="M 178.800781 385 C 178.800781 382.601563 175.199219 382.601563 175.199219 385 C 175.199219 387.398438 178.800781 387.398438 178.800781 385 Z M 178.800781 385 "/>
<path fill-rule="evenodd" fill="rgb(0%, 0%, 0%)" fill-opacity="1" d="M 210.800781 369 C 210.800781 366.601563 207.199219 366.601563 207.199219 369 C 207.199219 371.398438 210.800781 371.398438 210.800781 369 Z M 210.800781 369 "/>
<path fill-rule="evenodd" fill="rgb(0%, 0%, 0%)" fill-opacity="1" d="M 34.800781 97 C 34.800781 94.601563 31.199219 94.601563 31.199219 97 C 31.199219 99.398438 34.800781 99.398438 34.800781 97 Z M 34.800781 97 "/>
<path fill-rule="evenodd" fill="rgb(0%, 0%, 0%)" fill-opacity="1" d="M 114.800781 145 C 114.800781 142.601563 111.199219 142.601563 111.199219 145 C 111.199219 147.398438 114.800781 147.398438 114.800781 145 Z M 114.800781 145 "/>
<path fill-rule="evenodd" fill="rgb(0%, 0%, 0%)" fill-opacity="1" d="M 98.800781 177 C 98.800781 174.601563 95.199219 174.601563 95.199219 177 C 95.199219 179.398438 98.800781 179.398438 98.800781 177 Z M 98.800781 177 "/>
<path fill-rule="evenodd" fill="rgb(0%, 0%, 0%)" fill-opacity="1" d="M 178.800781 417 C 178.800781 414.601563 175.199219 414.601563 175.199219 417 C 175.199219 419.398438 178.800781 419.398438 178.800781 417 Z M 178.800781 417 "/>
<path fill-rule="evenodd" fill="rgb(0%, 0%, 0%)" fill-opacity="1" d="M 258.800781 433 C 258.800781 430.601563 255.199219 430.601563 255.199219 433 C 255.199219 435.398438 258.800781 435.398438 258.800781 433 Z M 258.800781 433 "/>
<path fill-rule="evenodd" fill="rgb(0%, 0%, 0%)" fill-opacity="1" d="M 338.800781 401 C 338.800781 398.601563 335.199219 398.601563 335.199219 401 C 335.199219 403.398438 338.800781 403.398438 338.800781 401 Z M 338.800781 401 "/>
<path fill-rule="evenodd" fill="rgb(0%, 0%, 0%)" fill-opacity="1" d="M 338.800781 337 C 338.800781 334.601563 335.199219 334.601563 335.199219 337 C 335.199219 339.398438 338.800781 339.398438 338.800781 337 Z M 338.800781 337 "/>
<path fill-rule="evenodd" fill="rgb(0%, 0%, 0%)" fill-opacity="1" d="M 434.800781 369 C 434.800781 366.601563 431.199219 366.601563 431.199219 369 C 431.199219 371.398438 434.800781 371.398438 434.800781 369 Z M 434.800781 369 "/>
<path fill-rule="evenodd" fill="rgb(0%, 0%, 0%)" fill-opacity="1" d="M 450.800781 433 C 450.800781 430.601563 447.199219 430.601563 447.199219 433 C 447.199219 435.398438 450.800781 435.398438 450.800781 433 Z M 450.800781 433 "/>
<path fill-rule="evenodd" fill="rgb(0%, 0%, 0%)" fill-opacity="1" d="M 306.800781 433 C 306.800781 430.601563 303.199219 430.601563 303.199219 433 C 303.199219 435.398438 306.800781 435.398438 306.800781 433 Z M 306.800781 433 "/>
<path fill-rule="evenodd" fill="rgb(0%, 0%, 0%)" fill-opacity="1" d="M 370.800781 385 C 370.800781 382.601563 367.199219 382.601563 367.199219 385 C 367.199219 387.398438 370.800781 387.398438 370.800781 385 Z M 370.800781 385 "/>
<path fill-rule="evenodd" fill="rgb(0%, 0%, 0%)" fill-opacity="1" d="M 306.800781 369 C 306.800781 366.601563 303.199219 366.601563 303.199219 369 C 303.199219 371.398438 306.800781 371.398438 306.800781 369 Z M 306.800781 369 "/>
<path fill-rule="evenodd" fill="rgb(0%, 0%, 0%)" fill-opacity="1" d="M 242.800781 337 C 242.800781 334.601563 239.199219 334.601563 239.199219 337 C 239.199219 339.398438 242.800781 339.398438 242.800781 337 Z M 242.800781 337 "/>
<path fill-rule="evenodd" fill="rgb(0%, 0%, 0%)" fill-opacity="1" d="M 194.800781 353 C 194.800781 350.601563 191.199219 350.601563 191.199219 353 C 191.199219 355.398438 194.800781 355.398438 194.800781 353 Z M 194.800781 353 "/>
<path fill-rule="evenodd" fill="rgb(0%, 0%, 0%)" fill-opacity="1" d="M 130.800781 353 C 130.800781 350.601563 127.199219 350.601563 127.199219 353 C 127.199219 355.398438 130.800781 355.398438 130.800781 353 Z M 130.800781 353 "/>
<path fill-rule="evenodd" fill="rgb(0%, 0%, 0%)" fill-opacity="1" d="M 82.800781 337 C 82.800781 334.601563 79.199219 334.601563 79.199219 337 C 79.199219 339.398438 82.800781 339.398438 82.800781 337 Z M 82.800781 337 "/>
<path fill-rule="evenodd" fill="rgb(0%, 0%, 0%)" fill-opacity="1" d="M 98.800781 305 C 98.800781 302.601563 95.199219 302.601563 95.199219 305 C 95.199219 307.398438 98.800781 307.398438 98.800781 305 Z M 98.800781 305 "/>
<path fill-rule="evenodd" fill="rgb(0%, 0%, 0%)" fill-opacity="1" d="M 98.800781 273 C 98.800781 270.601563 95.199219 270.601563 95.199219 273 C 95.199219 275.398438 98.800781 275.398438 98.800781 273 Z M 98.800781 273 "/>
<path fill-rule="evenodd" fill="rgb(0%, 0%, 0%)" fill-opacity="1" d="M 50.800781 273 C 50.800781 270.601563 47.199219 270.601563 47.199219 273 C 47.199219 275.398438 50.800781 275.398438 50.800781 273 Z M 50.800781 273 "/>
<path fill-rule="evenodd" fill="rgb(0%, 0%, 0%)" fill-opacity="1" d="M 98.800781 241 C 98.800781 238.601563 95.199219 238.601563 95.199219 241 C 95.199219 243.398438 98.800781 243.398438 98.800781 241 Z M 98.800781 241 "/>
<path fill-rule="evenodd" fill="rgb(0%, 0%, 0%)" fill-opacity="1" d="M 130.800781 209 C 130.800781 206.601563 127.199219 206.601563 127.199219 209 C 127.199219 211.398438 130.800781 211.398438 130.800781 209 Z M 130.800781 209 "/>
<path fill-rule="evenodd" fill="rgb(0%, 0%, 0%)" fill-opacity="1" d="M 194.800781 225 C 194.800781 222.601563 191.199219 222.601563 191.199219 225 C 191.199219 227.398438 194.800781 227.398438 194.800781 225 Z M 194.800781 225 "/>
<path fill-rule="evenodd" fill="rgb(0%, 0%, 0%)" fill-opacity="1" d="M 194.800781 257 C 194.800781 254.601563 191.199219 254.601563 191.199219 257 C 191.199219 259.398438 194.800781 259.398438 194.800781 257 Z M 194.800781 257 "/>
<path fill-rule="evenodd" fill="rgb(0%, 0%, 0%)" fill-opacity="1" d="M 194.800781 289 C 194.800781 286.601563 191.199219 286.601563 191.199219 289 C 191.199219 291.398438 194.800781 291.398438 194.800781 289 Z M 194.800781 289 "/>
<path fill-rule="evenodd" fill="rgb(0%, 0%, 0%)" fill-opacity="1" d="M 242.800781 289 C 242.800781 286.601563 239.199219 286.601563 239.199219 289 C 239.199219 291.398438 242.800781 291.398438 242.800781 289 Z M 242.800781 289 "/>
<path fill-rule="evenodd" fill="rgb(0%, 0%, 0%)" fill-opacity="1" d="M 258.800781 305 C 258.800781 302.601563 255.199219 302.601563 255.199219 305 C 255.199219 307.398438 258.800781 307.398438 258.800781 305 Z M 258.800781 305 "/>
<path fill-rule="evenodd" fill="rgb(0%, 0%, 0%)" fill-opacity="1" d="M 322.800781 305 C 322.800781 302.601563 319.199219 302.601563 319.199219 305 C 319.199219 307.398438 322.800781 307.398438 322.800781 305 Z M 322.800781 305 "/>
<path fill-rule="evenodd" fill="rgb(0%, 0%, 0%)" fill-opacity="1" d="M 322.800781 273 C 322.800781 270.601563 319.199219 270.601563 319.199219 273 C 319.199219 275.398438 322.800781 275.398438 322.800781 273 Z M 322.800781 273 "/>
<path fill-rule="evenodd" fill="rgb(0%, 0%, 0%)" fill-opacity="1" d="M 258.800781 257 C 258.800781 254.601563 255.199219 254.601563 255.199219 257 C 255.199219 259.398438 258.800781 259.398438 258.800781 257 Z M 258.800781 257 "/>
<path fill-rule="evenodd" fill="rgb(0%, 0%, 0%)" fill-opacity="1" d="M 242.800781 225 C 242.800781 222.601563 239.199219 222.601563 239.199219 225 C 239.199219 227.398438 242.800781 227.398438 242.800781 225 Z M 242.800781 225 "/>
<path fill-rule="evenodd" fill="rgb(0%, 0%, 0%)" fill-opacity="1" d="M 226.800781 193 C 226.800781 190.601563 223.199219 190.601563 223.199219 193 C 223.199219 195.398438 226.800781 195.398438 226.800781 193 Z M 226.800781 193 "/>
<path fill-rule="evenodd" fill="rgb(0%, 0%, 0%)" fill-opacity="1" d="M 210.800781 177 C 210.800781 174.601563 207.199219 174.601563 207.199219 177 C 207.199219 179.398438 210.800781 179.398438 210.800781 177 Z M 210.800781 177 "/>
<path fill-rule="evenodd" fill="rgb(0%, 0%, 0%)" fill-opacity="1" d="M 210.800781 129 C 210.800781 126.601563 207.199219 126.601563 207.199219 129 C 207.199219 131.398438 210.800781 131.398438 210.800781 129 Z M 210.800781 129 "/>
<path fill-rule="evenodd" fill="rgb(0%, 0%, 0%)" fill-opacity="1" d="M 162.800781 161 C 162.800781 158.601563 159.199219 158.601563 159.199219 161 C 159.199219 163.398438 162.800781 163.398438 162.800781 161 Z M 162.800781 161 "/>
<path fill-rule="evenodd" fill="rgb(0%, 0%, 0%)" fill-opacity="1" d="M 146.800781 177 C 146.800781 174.601563 143.199219 174.601563 143.199219 177 C 143.199219 179.398438 146.800781 179.398438 146.800781 177 Z M 146.800781 177 "/>
<path fill-rule="evenodd" fill="rgb(0%, 0%, 0%)" fill-opacity="1" d="M 146.800781 161 C 146.800781 158.601563 143.199219 158.601563 143.199219 161 C 143.199219 163.398438 146.800781 163.398438 146.800781 161 Z M 146.800781 161 "/>
<path fill-rule="evenodd" fill="rgb(0%, 0%, 0%)" fill-opacity="1" d="M 146.800781 145 C 146.800781 142.601563 143.199219 142.601563 143.199219 145 C 143.199219 147.398438 146.800781 147.398438 146.800781 145 Z M 146.800781 145 "/>
<path fill-rule="evenodd" fill="rgb(0%, 0%, 0%)" fill-opacity="1" d="M 114.800781 81 C 114.800781 78.601563 111.199219 78.601563 111.199219 81 C 111.199219 83.398438 114.800781 83.398438 114.800781 81 Z M 114.800781 81 "/>
<path fill-rule="evenodd" fill="rgb(0%, 0%, 0%)" fill-opacity="1" d="M 66.800781 97 C 66.800781 94.601563 63.199219 94.601563 63.199219 97 C 63.199219 99.398438 66.800781 99.398438 66.800781 97 Z M 66.800781 97 "/>
<path fill-rule="evenodd" fill="rgb(0%, 0%, 0%)" fill-opacity="1" d="M 50.800781 145 C 50.800781 142.601563 47.199219 142.601563 47.199219 145 C 47.199219 147.398438 50.800781 147.398438 50.800781 145 Z M 50.800781 145 "/>
<path fill-rule="evenodd" fill="rgb(0%, 0%, 0%)" fill-opacity="1" d="M 34.800781 177 C 34.800781 174.601563 31.199219 174.601563 31.199219 177 C 31.199219 179.398438 34.800781 179.398438 34.800781 177 Z M 34.800781 177 "/>
<path fill-rule="evenodd" fill="rgb(0%, 0%, 0%)" fill-opacity="1" d="M 18.800781 225 C 18.800781 222.601563 15.199219 222.601563 15.199219 225 C 15.199219 227.398438 18.800781 227.398438 18.800781 225 Z M 18.800781 225 "/>
<path fill-rule="evenodd" fill="rgb(0%, 0%, 0%)" fill-opacity="1" d="M 34.800781 273 C 34.800781 270.601563 31.199219 270.601563 31.199219 273 C 31.199219 275.398438 34.800781 275.398438 34.800781 273 Z M 34.800781 273 "/>
<path fill-rule="evenodd" fill="rgb(0%, 0%, 0%)" fill-opacity="1" d="M 146.800781 209 C 146.800781 206.601563 143.199219 206.601563 143.199219 209 C 143.199219 211.398438 146.800781 211.398438 146.800781 209 Z M 146.800781 209 "/>
<path fill-rule="evenodd" fill="rgb(0%, 0%, 0%)" fill-opacity="1" d="M 178.800781 241 C 178.800781 238.601563 175.199219 238.601563 175.199219 241 C 175.199219 243.398438 178.800781 243.398438 178.800781 241 Z M 178.800781 241 "/>
<path fill-rule="evenodd" fill="rgb(0%, 0%, 0%)" fill-opacity="1" d="M 178.800781 305 C 178.800781 302.601563 175.199219 302.601563 175.199219 305 C 175.199219 307.398438 178.800781 307.398438 178.800781 305 Z M 178.800781 305 "/>
<path fill-rule="evenodd" fill="rgb(0%, 0%, 0%)" fill-opacity="1" d="M 370.800781 225 C 370.800781 222.601563 367.199219 222.601563 367.199219 225 C 367.199219 227.398438 370.800781 227.398438 370.800781 225 Z M 370.800781 225 "/>
<path fill-rule="evenodd" fill="rgb(0%, 0%, 0%)" fill-opacity="1" d="M 322.800781 289 C 322.800781 286.601563 319.199219 286.601563 319.199219 289 C 319.199219 291.398438 322.800781 291.398438 322.800781 289 Z M 322.800781 289 "/>
<path fill-rule="evenodd" fill="rgb(0%, 0%, 0%)" fill-opacity="1" d="M 370.800781 289 C 370.800781 286.601563 367.199219 286.601563 367.199219 289 C 367.199219 291.398438 370.800781 291.398438 370.800781 289 Z M 370.800781 289 "/>
<path fill-rule="evenodd" fill="rgb(0%, 0%, 0%)" fill-opacity="1" d="M 306.800781 305 C 306.800781 302.601563 303.199219 302.601563 303.199219 305 C 303.199219 307.398438 306.800781 307.398438 306.800781 305 Z M 306.800781 305 "/>
<path fill-rule="evenodd" fill="rgb(0%, 0%, 0%)" fill-opacity="1" d="M 274.800781 321 C 274.800781 318.601563 271.199219 318.601563 271.199219 321 C 271.199219 323.398438 274.800781 323.398438 274.800781 321 Z M 274.800781 321 "/>
<path fill-rule="evenodd" fill="rgb(0%, 0%, 0%)" fill-opacity="1" d="M 258.800781 385 C 258.800781 382.601563 255.199219 382.601563 255.199219 385 C 255.199219 387.398438 258.800781 387.398438 258.800781 385 Z M 258.800781 385 "/>
<path fill-rule="evenodd" fill="rgb(0%, 0%, 0%)" fill-opacity="1" d="M 258.800781 401 C 258.800781 398.601563 255.199219 398.601563 255.199219 401 C 255.199219 403.398438 258.800781 403.398438 258.800781 401 Z M 258.800781 401 "/>
<path fill-rule="evenodd" fill="rgb(0%, 0%, 0%)" fill-opacity="1" d="M 386.800781 369 C 386.800781 366.601563 383.199219 366.601563 383.199219 369 C 383.199219 371.398438 386.800781 371.398438 386.800781 369 Z M 386.800781 369 "/>
<path fill-rule="evenodd" fill="rgb(0%, 0%, 0%)" fill-opacity="1" d="M 418.800781 353 C 418.800781 350.601563 415.199219 350.601563 415.199219 353 C 415.199219 355.398438 418.800781 355.398438 418.800781 353 Z M 418.800781 353 "/>
<path fill-rule="evenodd" fill="rgb(0%, 0%, 0%)" fill-opacity="1" d="M 434.800781 337 C 434.800781 334.601563 431.199219 334.601563 431.199219 337 C 431.199219 339.398438 434.800781 339.398438 434.800781 337 Z M 434.800781 337 "/>
<path fill-rule="evenodd" fill="rgb(0%, 0%, 0%)" fill-opacity="1" d="M 514.800781 321 C 514.800781 318.601563 511.199219 318.601563 511.199219 321 C 511.199219 323.398438 514.800781 323.398438 514.800781 321 Z M 514.800781 321 "/>
<path fill-rule="evenodd" fill="rgb(0%, 0%, 0%)" fill-opacity="1" d="M 498.800781 289 C 498.800781 286.601563 495.199219 286.601563 495.199219 289 C 495.199219 291.398438 498.800781 291.398438 498.800781 289 Z M 498.800781 289 "/>
<path fill-rule="evenodd" fill="rgb(0%, 0%, 0%)" fill-opacity="1" d="M 466.800781 289 C 466.800781 286.601563 463.199219 286.601563 463.199219 289 C 463.199219 291.398438 466.800781 291.398438 466.800781 289 Z M 466.800781 289 "/>
<path fill-rule="evenodd" fill="rgb(0%, 0%, 0%)" fill-opacity="1" d="M 562.800781 241 C 562.800781 238.601563 559.199219 238.601563 559.199219 241 C 559.199219 243.398438 562.800781 243.398438 562.800781 241 Z M 562.800781 241 "/>
<path fill-rule="evenodd" fill="rgb(0%, 0%, 0%)" fill-opacity="1" d="M 578.800781 209 C 578.800781 206.601563 575.199219 206.601563 575.199219 209 C 575.199219 211.398438 578.800781 211.398438 578.800781 209 Z M 578.800781 209 "/>
<path fill-rule="evenodd" fill="rgb(0%, 0%, 0%)" fill-opacity="1" d="M 514.800781 193 C 514.800781 190.601563 511.199219 190.601563 511.199219 193 C 511.199219 195.398438 514.800781 195.398438 514.800781 193 Z M 514.800781 193 "/>
<path fill-rule="evenodd" fill="rgb(0%, 0%, 0%)" fill-opacity="1" d="M 466.800781 241 C 466.800781 238.601563 463.199219 238.601563 463.199219 241 C 463.199219 243.398438 466.800781 243.398438 466.800781 241 Z M 466.800781 241 "/>
<path fill-rule="evenodd" fill="rgb(0%, 0%, 0%)" fill-opacity="1" d="M 482.800781 257 C 482.800781 254.601563 479.199219 254.601563 479.199219 257 C 479.199219 259.398438 482.800781 259.398438 482.800781 257 Z M 482.800781 257 "/>
<path fill-rule="evenodd" fill="rgb(0%, 0%, 0%)" fill-opacity="1" d="M 370.800781 241 C 370.800781 238.601563 367.199219 238.601563 367.199219 241 C 367.199219 243.398438 370.800781 243.398438 370.800781 241 Z M 370.800781 241 "/>
<path fill-rule="evenodd" fill="rgb(0%, 0%, 0%)" fill-opacity="1" d="M 434.800781 177 C 434.800781 174.601563 431.199219 174.601563 431.199219 177 C 431.199219 179.398438 434.800781 179.398438 434.800781 177 Z M 434.800781 177 "/>
<path fill-rule="evenodd" fill="rgb(0%, 0%, 0%)" fill-opacity="1" d="M 450.800781 129 C 450.800781 126.601563 447.199219 126.601563 447.199219 129 C 447.199219 131.398438 450.800781 131.398438 450.800781 129 Z M 450.800781 129 "/>
<path fill-rule="evenodd" fill="rgb(0%, 0%, 0%)" fill-opacity="1" d="M 338.800781 129 C 338.800781 126.601563 335.199219 126.601563 335.199219 129 C 335.199219 131.398438 338.800781 131.398438 338.800781 129 Z M 338.800781 129 "/>
<path fill-rule="evenodd" fill="rgb(0%, 0%, 0%)" fill-opacity="1" d="M 290.800781 81 C 290.800781 78.601563 287.199219 78.601563 287.199219 81 C 287.199219 83.398438 290.800781 83.398438 290.800781 81 Z M 290.800781 81 "/>
<path fill-rule="evenodd" fill="rgb(0%, 0%, 0%)" fill-opacity="1" d="M 338.800781 65 C 338.800781 62.601563 335.199219 62.601563 335.199219 65 C 335.199219 67.398438 338.800781 67.398438 338.800781 65 Z M 338.800781 65 "/>
<path fill-rule="evenodd" fill="rgb(0%, 0%, 0%)" fill-opacity="1" d="M 242.800781 49 C 242.800781 46.601563 239.199219 46.601563 239.199219 49 C 239.199219 51.398438 242.800781 51.398438 242.800781 49 Z M 242.800781 49 "/>
<path fill-rule="evenodd" fill="rgb(0%, 0%, 0%)" fill-opacity="1" d="M 274.800781 113 C 274.800781 110.601563 271.199219 110.601563 271.199219 113 C 271.199219 115.398438 274.800781 115.398438 274.800781 113 Z M 274.800781 113 "/>
<path fill-rule="evenodd" fill="rgb(0%, 0%, 0%)" fill-opacity="1" d="M 290.800781 161 C 290.800781 158.601563 287.199219 158.601563 287.199219 161 C 287.199219 163.398438 290.800781 163.398438 290.800781 161 Z M 290.800781 161 "/>
<path fill-rule="evenodd" fill="rgb(0%, 0%, 0%)" fill-opacity="1" d="M 226.800781 145 C 226.800781 142.601563 223.199219 142.601563 223.199219 145 C 223.199219 147.398438 226.800781 147.398438 226.800781 145 Z M 226.800781 145 "/>
<path fill-rule="evenodd" fill="rgb(0%, 0%, 0%)" fill-opacity="1" d="M 290.800781 113 C 290.800781 110.601563 287.199219 110.601563 287.199219 113 C 287.199219 115.398438 290.800781 115.398438 290.800781 113 Z M 290.800781 113 "/>
<path fill-rule="evenodd" fill="rgb(0%, 0%, 0%)" fill-opacity="1" d="M 306.800781 145 C 306.800781 142.601563 303.199219 142.601563 303.199219 145 C 303.199219 147.398438 306.800781 147.398438 306.800781 145 Z M 306.800781 145 "/>
<path fill-rule="evenodd" fill="rgb(0%, 0%, 0%)" fill-opacity="1" d="M 322.800781 225 C 322.800781 222.601563 319.199219 222.601563 319.199219 225 C 319.199219 227.398438 322.800781 227.398438 322.800781 225 Z M 322.800781 225 "/>
<path fill-rule="evenodd" fill="rgb(0%, 0%, 0%)" fill-opacity="1" d="M 402.800781 273 C 402.800781 270.601563 399.199219 270.601563 399.199219 273 C 399.199219 275.398438 402.800781 275.398438 402.800781 273 Z M 402.800781 273 "/>
<path fill-rule="evenodd" fill="rgb(0%, 0%, 0%)" fill-opacity="1" d="M 514.800781 81 C 514.800781 78.601563 511.199219 78.601563 511.199219 81 C 511.199219 83.398438 514.800781 83.398438 514.800781 81 Z M 514.800781 81 "/>
<path fill-rule="evenodd" fill="rgb(0%, 0%, 0%)" fill-opacity="1" d="M 354.800781 65 C 354.800781 62.601563 351.199219 62.601563 351.199219 65 C 351.199219 67.398438 354.800781 67.398438 354.800781 65 Z M 354.800781 65 "/>
<path fill-rule="evenodd" fill="rgb(0%, 0%, 0%)" fill-opacity="1" d="M 402.800781 193 C 402.800781 190.601563 399.199219 190.601563 399.199219 193 C 399.199219 195.398438 402.800781 195.398438 402.800781 193 Z M 402.800781 193 "/>
<path fill-rule="evenodd" fill="rgb(0%, 0%, 0%)" fill-opacity="1" d="M 466.800781 81 C 466.800781 78.601563 463.199219 78.601563 463.199219 81 C 463.199219 83.398438 466.800781 83.398438 466.800781 81 Z M 466.800781 81 "/>
<path fill-rule="evenodd" fill="rgb(0%, 0%, 0%)" fill-opacity="1" d="M 370.800781 65 C 370.800781 62.601563 367.199219 62.601563 367.199219 65 C 367.199219 67.398438 370.800781 67.398438 370.800781 65 Z M 370.800781 65 "/>
<path fill-rule="evenodd" fill="rgb(0%, 0%, 0%)" fill-opacity="1" d="M 434.800781 161 C 434.800781 158.601563 431.199219 158.601563 431.199219 161 C 431.199219 163.398438 434.800781 163.398438 434.800781 161 Z M 434.800781 161 "/>
<path fill-rule="evenodd" fill="rgb(0%, 0%, 0%)" fill-opacity="1" d="M 258.800781 241 C 258.800781 238.601563 255.199219 238.601563 255.199219 241 C 255.199219 243.398438 258.800781 243.398438 258.800781 241 Z M 258.800781 241 "/>
<path fill-rule="evenodd" fill="rgb(0%, 0%, 0%)" fill-opacity="1" d="M 258.800781 321 C 258.800781 318.601563 255.199219 318.601563 255.199219 321 C 255.199219 323.398438 258.800781 323.398438 258.800781 321 Z M 258.800781 321 "/>
<path fill-rule="evenodd" fill="rgb(0%, 0%, 0%)" fill-opacity="1" d="M 226.800781 193 C 226.800781 190.601563 223.199219 190.601563 223.199219 193 C 223.199219 195.398438 226.800781 195.398438 226.800781 193 Z M 226.800781 193 "/>
<path fill-rule="evenodd" fill="rgb(0%, 0%, 0%)" fill-opacity="1" d="M 210.800781 81 C 210.800781 78.601563 207.199219 78.601563 207.199219 81 C 207.199219 83.398438 210.800781 83.398438 210.800781 81 Z M 210.800781 81 "/>
<path fill-rule="evenodd" fill="rgb(0%, 0%, 0%)" fill-opacity="1" d="M 130.800781 65 C 130.800781 62.601563 127.199219 62.601563 127.199219 65 C 127.199219 67.398438 130.800781 67.398438 130.800781 65 Z M 130.800781 65 "/>
<path fill-rule="evenodd" fill="rgb(0%, 0%, 0%)" fill-opacity="1" d="M 210.800781 241 C 210.800781 238.601563 207.199219 238.601563 207.199219 241 C 207.199219 243.398438 210.800781 243.398438 210.800781 241 Z M 210.800781 241 "/>
<path fill-rule="evenodd" fill="rgb(0%, 0%, 0%)" fill-opacity="1" d="M 322.800781 209 C 322.800781 206.601563 319.199219 206.601563 319.199219 209 C 319.199219 211.398438 322.800781 211.398438 322.800781 209 Z M 322.800781 209 "/>
<path fill-rule="evenodd" fill="rgb(0%, 0%, 0%)" fill-opacity="1" d="M 274.800781 145 C 274.800781 142.601563 271.199219 142.601563 271.199219 145 C 271.199219 147.398438 274.800781 147.398438 274.800781 145 Z M 274.800781 145 "/>
<path fill-rule="evenodd" fill="rgb(0%, 0%, 0%)" fill-opacity="1" d="M 338.800781 241 C 338.800781 238.601563 335.199219 238.601563 335.199219 241 C 335.199219 243.398438 338.800781 243.398438 338.800781 241 Z M 338.800781 241 "/>
<path fill-rule="evenodd" fill="rgb(0%, 0%, 0%)" fill-opacity="1" d="M 322.800781 305 C 322.800781 302.601563 319.199219 302.601563 319.199219 305 C 319.199219 307.398438 322.800781 307.398438 322.800781 305 Z M 322.800781 305 "/>
<path fill-rule="evenodd" fill="rgb(0%, 0%, 0%)" fill-opacity="1" d="M 98.800781 289 C 98.800781 286.601563 95.199219 286.601563 95.199219 289 C 95.199219 291.398438 98.800781 291.398438 98.800781 289 Z M 98.800781 289 "/>
<path fill-rule="evenodd" fill="rgb(0%, 0%, 0%)" fill-opacity="1" d="M 178.800781 321 C 178.800781 318.601563 175.199219 318.601563 175.199219 321 C 175.199219 323.398438 178.800781 323.398438 178.800781 321 Z M 178.800781 321 "/>
<path fill-rule="evenodd" fill="rgb(0%, 0%, 0%)" fill-opacity="1" d="M 114.800781 369 C 114.800781 366.601563 111.199219 366.601563 111.199219 369 C 111.199219 371.398438 114.800781 371.398438 114.800781 369 Z M 114.800781 369 "/>
<path fill-rule="evenodd" fill="rgb(0%, 0%, 0%)" fill-opacity="1" d="M 114.800781 385 C 114.800781 382.601563 111.199219 382.601563 111.199219 385 C 111.199219 387.398438 114.800781 387.398438 114.800781 385 Z M 114.800781 385 "/>
<path fill-rule="evenodd" fill="rgb(0%, 0%, 0%)" fill-opacity="1" d="M 34.800781 401 C 34.800781 398.601563 31.199219 398.601563 31.199219 401 C 31.199219 403.398438 34.800781 403.398438 34.800781 401 Z M 34.800781 401 "/>
<path fill-rule="evenodd" fill="rgb(0%, 0%, 0%)" fill-opacity="1" d="M 178.800781 417 C 178.800781 414.601563 175.199219 414.601563 175.199219 417 C 175.199219 419.398438 178.800781 419.398438 178.800781 417 Z M 178.800781 417 "/>
<path fill-rule="evenodd" fill="rgb(0%, 0%, 0%)" fill-opacity="1" d="M 322.800781 353 C 322.800781 350.601563 319.199219 350.601563 319.199219 353 C 319.199219 355.398438 322.800781 355.398438 322.800781 353 Z M 322.800781 353 "/>
<path fill-rule="evenodd" fill="rgb(0%, 0%, 0%)" fill-opacity="1" d="M 258.800781 257 C 258.800781 254.601563 255.199219 254.601563 255.199219 257 C 255.199219 259.398438 258.800781 259.398438 258.800781 257 Z M 258.800781 257 "/>
<path fill-rule="evenodd" fill="rgb(0%, 0%, 0%)" fill-opacity="1" d="M 338.800781 289 C 338.800781 286.601563 335.199219 286.601563 335.199219 289 C 335.199219 291.398438 338.800781 291.398438 338.800781 289 Z M 338.800781 289 "/>
<path fill-rule="evenodd" fill="rgb(0%, 0%, 0%)" fill-opacity="1" d="M 466.800781 385 C 466.800781 382.601563 463.199219 382.601563 463.199219 385 C 463.199219 387.398438 466.800781 387.398438 466.800781 385 Z M 466.800781 385 "/>
<path fill-rule="evenodd" fill="rgb(0%, 0%, 0%)" fill-opacity="1" d="M 562.800781 401 C 562.800781 398.601563 559.199219 398.601563 559.199219 401 C 559.199219 403.398438 562.800781 403.398438 562.800781 401 Z M 562.800781 401 "/>
<path fill-rule="evenodd" fill="rgb(0%, 0%, 0%)" fill-opacity="1" d="M 514.800781 401 C 514.800781 398.601563 511.199219 398.601563 511.199219 401 C 511.199219 403.398438 514.800781 403.398438 514.800781 401 Z M 514.800781 401 "/>
<path fill-rule="evenodd" fill="rgb(0%, 0%, 0%)" fill-opacity="1" d="M 450.800781 433 C 450.800781 430.601563 447.199219 430.601563 447.199219 433 C 447.199219 435.398438 450.800781 435.398438 450.800781 433 Z M 450.800781 433 "/>
<path fill-rule="evenodd" fill="rgb(0%, 0%, 0%)" fill-opacity="1" d="M 498.800781 417 C 498.800781 414.601563 495.199219 414.601563 495.199219 417 C 495.199219 419.398438 498.800781 419.398438 498.800781 417 Z M 498.800781 417 "/>
<path fill-rule="evenodd" fill="rgb(0%, 0%, 0%)" fill-opacity="1" d="M 546.800781 369 C 546.800781 366.601563 543.199219 366.601563 543.199219 369 C 543.199219 371.398438 546.800781 371.398438 546.800781 369 Z M 546.800781 369 "/>
<path fill-rule="evenodd" fill="rgb(0%, 0%, 0%)" fill-opacity="1" d="M 530.800781 337 C 530.800781 334.601563 527.199219 334.601563 527.199219 337 C 527.199219 339.398438 530.800781 339.398438 530.800781 337 Z M 530.800781 337 "/>
<path fill-rule="evenodd" fill="rgb(0%, 0%, 0%)" fill-opacity="1" d="M 514.800781 321 C 514.800781 318.601563 511.199219 318.601563 511.199219 321 C 511.199219 323.398438 514.800781 323.398438 514.800781 321 Z M 514.800781 321 "/>
<path fill-rule="evenodd" fill="rgb(0%, 0%, 0%)" fill-opacity="1" d="M 498.800781 257 C 498.800781 254.601563 495.199219 254.601563 495.199219 257 C 495.199219 259.398438 498.800781 259.398438 498.800781 257 Z M 498.800781 257 "/>
<path fill-rule="evenodd" fill="rgb(0%, 0%, 0%)" fill-opacity="1" d="M 514.800781 193 C 514.800781 190.601563 511.199219 190.601563 511.199219 193 C 511.199219 195.398438 514.800781 195.398438 514.800781 193 Z M 514.800781 193 "/>
<path fill-rule="evenodd" fill="rgb(0%, 0%, 0%)" fill-opacity="1" d="M 482.800781 113 C 482.800781 110.601563 479.199219 110.601563 479.199219 113 C 479.199219 115.398438 482.800781 115.398438 482.800781 113 Z M 482.800781 113 "/>
<path fill-rule="evenodd" fill="rgb(0%, 0%, 0%)" fill-opacity="1" d="M 450.800781 113 C 450.800781 110.601563 447.199219 110.601563 447.199219 113 C 447.199219 115.398438 450.800781 115.398438 450.800781 113 Z M 450.800781 113 "/>
<path fill-rule="evenodd" fill="rgb(0%, 0%, 0%)" fill-opacity="1" d="M 498.800781 49 C 498.800781 46.601563 495.199219 46.601563 495.199219 49 C 495.199219 51.398438 498.800781 51.398438 498.800781 49 Z M 498.800781 49 "/>
<path fill-rule="evenodd" fill="rgb(0%, 0%, 0%)" fill-opacity="1" d="M 402.800781 33 C 402.800781 30.601563 399.199219 30.601563 399.199219 33 C 399.199219 35.398438 402.800781 35.398438 402.800781 33 Z M 402.800781 33 "/>
<path fill-rule="evenodd" fill="rgb(0%, 0%, 0%)" fill-opacity="1" d="M 466.800781 113 C 466.800781 110.601563 463.199219 110.601563 463.199219 113 C 463.199219 115.398438 466.800781 115.398438 466.800781 113 Z M 466.800781 113 "/>
<path fill-rule="evenodd" fill="rgb(0%, 0%, 0%)" fill-opacity="1" d="M 338.800781 65 C 338.800781 62.601563 335.199219 62.601563 335.199219 65 C 335.199219 67.398438 338.800781 67.398438 338.800781 65 Z M 338.800781 65 "/>
<path fill-rule="evenodd" fill="rgb(0%, 0%, 0%)" fill-opacity="1" d="M 370.800781 33 C 370.800781 30.601563 367.199219 30.601563 367.199219 33 C 367.199219 35.398438 370.800781 35.398438 370.800781 33 Z M 370.800781 33 "/>
<path fill-rule="evenodd" fill="rgb(0%, 0%, 0%)" fill-opacity="1" d="M 386.800781 113 C 386.800781 110.601563 383.199219 110.601563 383.199219 113 C 383.199219 115.398438 386.800781 115.398438 386.800781 113 Z M 386.800781 113 "/>
<path fill-rule="evenodd" fill="rgb(0%, 0%, 0%)" fill-opacity="1" d="M 370.800781 113 C 370.800781 110.601563 367.199219 110.601563 367.199219 113 C 367.199219 115.398438 370.800781 115.398438 370.800781 113 Z M 370.800781 113 "/>
<path fill-rule="evenodd" fill="rgb(0%, 0%, 0%)" fill-opacity="1" d="M 274.800781 33 C 274.800781 30.601563 271.199219 30.601563 271.199219 33 C 271.199219 35.398438 274.800781 35.398438 274.800781 33 Z M 274.800781 33 "/>
<path fill-rule="evenodd" fill="rgb(0%, 0%, 0%)" fill-opacity="1" d="M 146.800781 17 C 146.800781 14.601563 143.199219 14.601563 143.199219 17 C 143.199219 19.398438 146.800781 19.398438 146.800781 17 Z M 146.800781 17 "/>
<path fill-rule="evenodd" fill="rgb(0%, 0%, 0%)" fill-opacity="1" d="M 258.800781 113 C 258.800781 110.601563 255.199219 110.601563 255.199219 113 C 255.199219 115.398438 258.800781 115.398438 258.800781 113 Z M 258.800781 113 "/>
<path fill-rule="evenodd" fill="rgb(0%, 0%, 0%)" fill-opacity="1" d="M 210.800781 113 C 210.800781 110.601563 207.199219 110.601563 207.199219 113 C 207.199219 115.398438 210.800781 115.398438 210.800781 113 Z M 210.800781 113 "/>
<path fill-rule="evenodd" fill="rgb(0%, 0%, 0%)" fill-opacity="1" d="M 194.800781 49 C 194.800781 46.601563 191.199219 46.601563 191.199219 49 C 191.199219 51.398438 194.800781 51.398438 194.800781 49 Z M 194.800781 49 "/>
<path fill-rule="evenodd" fill="rgb(0%, 0%, 0%)" fill-opacity="1" d="M 162.800781 97 C 162.800781 94.601563 159.199219 94.601563 159.199219 97 C 159.199219 99.398438 162.800781 99.398438 162.800781 97 Z M 162.800781 97 "/>
<path fill-rule="evenodd" fill="rgb(0%, 0%, 0%)" fill-opacity="1" d="M 162.800781 97 C 162.800781 94.601563 159.199219 94.601563 159.199219 97 C 159.199219 99.398438 162.800781 99.398438 162.800781 97 Z M 162.800781 97 "/>
<path fill-rule="evenodd" fill="rgb(0%, 0%, 0%)" fill-opacity="1" d="M 66.800781 49 C 66.800781 46.601563 63.199219 46.601563 63.199219 49 C 63.199219 51.398438 66.800781 51.398438 66.800781 49 Z M 66.800781 49 "/>
<path fill-rule="evenodd" fill="rgb(0%, 0%, 0%)" fill-opacity="1" d="M 18.800781 97 C 18.800781 94.601563 15.199219 94.601563 15.199219 97 C 15.199219 99.398438 18.800781 99.398438 18.800781 97 Z M 18.800781 97 "/>
<path fill-rule="evenodd" fill="rgb(0%, 0%, 0%)" fill-opacity="1" d="M 114.800781 193 C 114.800781 190.601563 111.199219 190.601563 111.199219 193 C 111.199219 195.398438 114.800781 195.398438 114.800781 193 Z M 114.800781 193 "/>
<path fill-rule="evenodd" fill="rgb(0%, 0%, 0%)" fill-opacity="1" d="M 50.800781 273 C 50.800781 270.601563 47.199219 270.601563 47.199219 273 C 47.199219 275.398438 50.800781 275.398438 50.800781 273 Z M 50.800781 273 "/>
<path fill-rule="evenodd" fill="rgb(0%, 0%, 0%)" fill-opacity="1" d="M 274.800781 209 C 274.800781 206.601563 271.199219 206.601563 271.199219 209 C 271.199219 211.398438 274.800781 211.398438 274.800781 209 Z M 274.800781 209 "/>
<path fill-rule="evenodd" fill="rgb(0%, 0%, 0%)" fill-opacity="1" d="M 290.800781 209 C 290.800781 206.601563 287.199219 206.601563 287.199219 209 C 287.199219 211.398438 290.800781 211.398438 290.800781 209 Z M 290.800781 209 "/>
<path fill-rule="evenodd" fill="rgb(0%, 0%, 0%)" fill-opacity="1" d="M 274.800781 257 C 274.800781 254.601563 271.199219 254.601563 271.199219 257 C 271.199219 259.398438 274.800781 259.398438 274.800781 257 Z M 274.800781 257 "/>
<path fill-rule="evenodd" fill="rgb(0%, 0%, 0%)" fill-opacity="1" d="M 386.800781 193 C 386.800781 190.601563 383.199219 190.601563 383.199219 193 C 383.199219 195.398438 386.800781 195.398438 386.800781 193 Z M 386.800781 193 "/>
<path fill-rule="evenodd" fill="rgb(0%, 0%, 0%)" fill-opacity="1" d="M 386.800781 161 C 386.800781 158.601563 383.199219 158.601563 383.199219 161 C 383.199219 163.398438 386.800781 163.398438 386.800781 161 Z M 386.800781 161 "/>
<path fill-rule="evenodd" fill="rgb(0%, 0%, 0%)" fill-opacity="1" d="M 354.800781 161 C 354.800781 158.601563 351.199219 158.601563 351.199219 161 C 351.199219 163.398438 354.800781 163.398438 354.800781 161 Z M 354.800781 161 "/>
<path fill-rule="evenodd" fill="rgb(0%, 0%, 0%)" fill-opacity="1" d="M 290.800781 177 C 290.800781 174.601563 287.199219 174.601563 287.199219 177 C 287.199219 179.398438 290.800781 179.398438 290.800781 177 Z M 290.800781 177 "/>
<path fill-rule="evenodd" fill="rgb(0%, 0%, 0%)" fill-opacity="1" d="M 242.800781 145 C 242.800781 142.601563 239.199219 142.601563 239.199219 145 C 239.199219 147.398438 242.800781 147.398438 242.800781 145 Z M 242.800781 145 "/>
<path fill-rule="evenodd" fill="rgb(0%, 0%, 0%)" fill-opacity="1" d="M 210.800781 193 C 210.800781 190.601563 207.199219 190.601563 207.199219 193 C 207.199219 195.398438 210.800781 195.398438 210.800781 193 Z M 210.800781 193 "/>
<path fill-rule="evenodd" fill="rgb(0%, 0%, 0%)" fill-opacity="1" d="M 194.800781 241 C 194.800781 238.601563 191.199219 238.601563 191.199219 241 C 191.199219 243.398438 194.800781 243.398438 194.800781 241 Z M 194.800781 241 "/>
<path fill-rule="evenodd" fill="rgb(0%, 0%, 0%)" fill-opacity="1" d="M 162.800781 161 C 162.800781 158.601563 159.199219 158.601563 159.199219 161 C 159.199219 163.398438 162.800781 163.398438 162.800781 161 Z M 162.800781 161 "/>
<path fill-rule="evenodd" fill="rgb(100%, 0%, 0%)" fill-opacity="1" d="M 130.800781 193 C 130.800781 190.601563 127.199219 190.601563 127.199219 193 C 127.199219 195.398438 130.800781 195.398438 130.800781 193 Z M 130.800781 193 "/>
<path fill-rule="evenodd" fill="rgb(0%, 0%, 0%)" fill-opacity="1" d="M 162.800781 257 C 162.800781 254.601563 159.199219 254.601563 159.199219 257 C 159.199219 259.398438 162.800781 259.398438 162.800781 257 Z M 162.800781 257 "/>
<path fill-rule="evenodd" fill="rgb(0%, 0%, 0%)" fill-opacity="1" d="M 130.800781 305 C 130.800781 302.601563 127.199219 302.601563 127.199219 305 C 127.199219 307.398438 130.800781 307.398438 130.800781 305 Z M 130.800781 305 "/>
<path fill-rule="evenodd" fill="rgb(0%, 0%, 0%)" fill-opacity="1" d="M 146.800781 321 C 146.800781 318.601563 143.199219 318.601563 143.199219 321 C 143.199219 323.398438 146.800781 323.398438 146.800781 321 Z M 146.800781 321 "/>
<path fill-rule="evenodd" fill="rgb(0%, 0%, 0%)" fill-opacity="1" d="M 98.800781 353 C 98.800781 350.601563 95.199219 350.601563 95.199219 353 C 95.199219 355.398438 98.800781 355.398438 98.800781 353 Z M 98.800781 353 "/>
<path fill-rule="evenodd" fill="rgb(0%, 0%, 0%)" fill-opacity="1" d="M 82.800781 353 C 82.800781 350.601563 79.199219 350.601563 79.199219 353 C 79.199219 355.398438 82.800781 355.398438 82.800781 353 Z M 82.800781 353 "/>
<path fill-rule="evenodd" fill="rgb(0%, 0%, 0%)" fill-opacity="1" d="M 130.800781 369 C 130.800781 366.601563 127.199219 366.601563 127.199219 369 C 127.199219 371.398438 130.800781 371.398438 130.800781 369 Z M 130.800781 369 "/>
<path fill-rule="evenodd" fill="rgb(0%, 0%, 0%)" fill-opacity="1" d="M 146.800781 401 C 146.800781 398.601563 143.199219 398.601563 143.199219 401 C 143.199219 403.398438 146.800781 403.398438 146.800781 401 Z M 146.800781 401 "/>
<path fill-rule="evenodd" fill="rgb(0%, 0%, 0%)" fill-opacity="1" d="M 226.800781 401 C 226.800781 398.601563 223.199219 398.601563 223.199219 401 C 223.199219 403.398438 226.800781 403.398438 226.800781 401 Z M 226.800781 401 "/>
<path fill-rule="evenodd" fill="rgb(0%, 0%, 0%)" fill-opacity="1" d="M 178.800781 321 C 178.800781 318.601563 175.199219 318.601563 175.199219 321 C 175.199219 323.398438 178.800781 323.398438 178.800781 321 Z M 178.800781 321 "/>
<path fill-rule="evenodd" fill="rgb(0%, 0%, 0%)" fill-opacity="1" d="M 226.800781 385 C 226.800781 382.601563 223.199219 382.601563 223.199219 385 C 223.199219 387.398438 226.800781 387.398438 226.800781 385 Z M 226.800781 385 "/>
<path fill-rule="evenodd" fill="rgb(100%, 0%, 0%)" fill-opacity="1" d="M 135 193 C 135 189.6875 132.3125 187 129 187 C 125.6875 187 123 189.6875 123 193 C 123 196.3125 125.6875 199 129 199 C 132.3125 199 135 196.3125 135 193 Z M 135 193 "/>
<path fill-rule="evenodd" fill="rgb(0%, 0%, 0%)" fill-opacity="1" d="M 322.800781 97 C 322.800781 94.601563 319.199219 94.601563 319.199219 97 C 319.199219 99.398438 322.800781 99.398438 322.800781 97 Z M 322.800781 97 "/>
<path fill-rule="evenodd" fill="rgb(0%, 0%, 0%)" fill-opacity="1" d="M 354.800781 113 C 354.800781 110.601563 351.199219 110.601563 351.199219 113 C 351.199219 115.398438 354.800781 115.398438 354.800781 113 Z M 354.800781 113 "/>
<path fill-rule="evenodd" fill="rgb(0%, 0%, 0%)" fill-opacity="1" d="M 338.800781 113 C 338.800781 110.601563 335.199219 110.601563 335.199219 113 C 335.199219 115.398438 338.800781 115.398438 338.800781 113 Z M 338.800781 113 "/>
<path fill-rule="evenodd" fill="rgb(0%, 0%, 0%)" fill-opacity="1" d="M 322.800781 129 C 322.800781 126.601563 319.199219 126.601563 319.199219 129 C 319.199219 131.398438 322.800781 131.398438 322.800781 129 Z M 322.800781 129 "/>
<path fill-rule="evenodd" fill="rgb(0%, 0%, 0%)" fill-opacity="1" d="M 322.800781 145 C 322.800781 142.601563 319.199219 142.601563 319.199219 145 C 319.199219 147.398438 322.800781 147.398438 322.800781 145 Z M 322.800781 145 "/>
<path fill-rule="evenodd" fill="rgb(0%, 0%, 0%)" fill-opacity="1" d="M 338.800781 145 C 338.800781 142.601563 335.199219 142.601563 335.199219 145 C 335.199219 147.398438 338.800781 147.398438 338.800781 145 Z M 338.800781 145 "/>
<path fill-rule="evenodd" fill="rgb(0%, 0%, 0%)" fill-opacity="1" d="M 354.800781 161 C 354.800781 158.601563 351.199219 158.601563 351.199219 161 C 351.199219 163.398438 354.800781 163.398438 354.800781 161 Z M 354.800781 161 "/>
<path fill-rule="evenodd" fill="rgb(0%, 0%, 0%)" fill-opacity="1" d="M 338.800781 177 C 338.800781 174.601563 335.199219 174.601563 335.199219 177 C 335.199219 179.398438 338.800781 179.398438 338.800781 177 Z M 338.800781 177 "/>
<path fill-rule="evenodd" fill="rgb(0%, 0%, 0%)" fill-opacity="1" d="M 338.800781 193 C 338.800781 190.601563 335.199219 190.601563 335.199219 193 C 335.199219 195.398438 338.800781 195.398438 338.800781 193 Z M 338.800781 193 "/>
<path fill-rule="evenodd" fill="rgb(0%, 0%, 0%)" fill-opacity="1" d="M 338.800781 193 C 338.800781 190.601563 335.199219 190.601563 335.199219 193 C 335.199219 195.398438 338.800781 195.398438 338.800781 193 Z M 338.800781 193 "/>
<path fill-rule="evenodd" fill="rgb(0%, 0%, 0%)" fill-opacity="1" d="M 354.800781 209 C 354.800781 206.601563 351.199219 206.601563 351.199219 209 C 351.199219 211.398438 354.800781 211.398438 354.800781 209 Z M 354.800781 209 "/>
<path fill-rule="evenodd" fill="rgb(0%, 0%, 0%)" fill-opacity="1" d="M 354.800781 209 C 354.800781 206.601563 351.199219 206.601563 351.199219 209 C 351.199219 211.398438 354.800781 211.398438 354.800781 209 Z M 354.800781 209 "/>
<path fill-rule="evenodd" fill="rgb(0%, 0%, 0%)" fill-opacity="1" d="M 354.800781 225 C 354.800781 222.601563 351.199219 222.601563 351.199219 225 C 351.199219 227.398438 354.800781 227.398438 354.800781 225 Z M 354.800781 225 "/>
<path fill-rule="evenodd" fill="rgb(0%, 0%, 0%)" fill-opacity="1" d="M 322.800781 209 C 322.800781 206.601563 319.199219 206.601563 319.199219 209 C 319.199219 211.398438 322.800781 211.398438 322.800781 209 Z M 322.800781 209 "/>
<path fill-rule="evenodd" fill="rgb(0%, 0%, 0%)" fill-opacity="1" d="M 354.800781 209 C 354.800781 206.601563 351.199219 206.601563 351.199219 209 C 351.199219 211.398438 354.800781 211.398438 354.800781 209 Z M 354.800781 209 "/>
<path fill-rule="evenodd" fill="rgb(0%, 0%, 0%)" fill-opacity="1" d="M 354.800781 209 C 354.800781 206.601563 351.199219 206.601563 351.199219 209 C 351.199219 211.398438 354.800781 211.398438 354.800781 209 Z M 354.800781 209 "/>
<path fill-rule="evenodd" fill="rgb(0%, 0%, 0%)" fill-opacity="1" d="M 354.800781 177 C 354.800781 174.601563 351.199219 174.601563 351.199219 177 C 351.199219 179.398438 354.800781 179.398438 354.800781 177 Z M 354.800781 177 "/>
<path fill-rule="evenodd" fill="rgb(0%, 0%, 0%)" fill-opacity="1" d="M 354.800781 177 C 354.800781 174.601563 351.199219 174.601563 351.199219 177 C 351.199219 179.398438 354.800781 179.398438 354.800781 177 Z M 354.800781 177 "/>
<path fill-rule="evenodd" fill="rgb(0%, 0%, 0%)" fill-opacity="1" d="M 370.800781 177 C 370.800781 174.601563 367.199219 174.601563 367.199219 177 C 367.199219 179.398438 370.800781 179.398438 370.800781 177 Z M 370.800781 177 "/>
<path fill-rule="evenodd" fill="rgb(0%, 0%, 0%)" fill-opacity="1" d="M 370.800781 193 C 370.800781 190.601563 367.199219 190.601563 367.199219 193 C 367.199219 195.398438 370.800781 195.398438 370.800781 193 Z M 370.800781 193 "/>
<path fill-rule="evenodd" fill="rgb(0%, 0%, 0%)" fill-opacity="1" d="M 370.800781 209 C 370.800781 206.601563 367.199219 206.601563 367.199219 209 C 367.199219 211.398438 370.800781 211.398438 370.800781 209 Z M 370.800781 209 "/>
<path fill-rule="evenodd" fill="rgb(0%, 0%, 0%)" fill-opacity="1" d="M 354.800781 225 C 354.800781 222.601563 351.199219 222.601563 351.199219 225 C 351.199219 227.398438 354.800781 227.398438 354.800781 225 Z M 354.800781 225 "/>
<path fill-rule="evenodd" fill="rgb(0%, 0%, 0%)" fill-opacity="1" d="M 338.800781 257 C 338.800781 254.601563 335.199219 254.601563 335.199219 257 C 335.199219 259.398438 338.800781 259.398438 338.800781 257 Z M 338.800781 257 "/>
<path fill-rule="evenodd" fill="rgb(0%, 0%, 0%)" fill-opacity="1" d="M 354.800781 273 C 354.800781 270.601563 351.199219 270.601563 351.199219 273 C 351.199219 275.398438 354.800781 275.398438 354.800781 273 Z M 354.800781 273 "/>
<path fill-rule="evenodd" fill="rgb(0%, 0%, 0%)" fill-opacity="1" d="M 322.800781 257 C 322.800781 254.601563 319.199219 254.601563 319.199219 257 C 319.199219 259.398438 322.800781 259.398438 322.800781 257 Z M 322.800781 257 "/>
<path fill-rule="evenodd" fill="rgb(0%, 0%, 0%)" fill-opacity="1" d="M 322.800781 273 C 322.800781 270.601563 319.199219 270.601563 319.199219 273 C 319.199219 275.398438 322.800781 275.398438 322.800781 273 Z M 322.800781 273 "/>
<path fill-rule="evenodd" fill="rgb(0%, 0%, 0%)" fill-opacity="1" d="M 306.800781 289 C 306.800781 286.601563 303.199219 286.601563 303.199219 289 C 303.199219 291.398438 306.800781 291.398438 306.800781 289 Z M 306.800781 289 "/>
<path fill-rule="evenodd" fill="rgb(0%, 0%, 0%)" fill-opacity="1" d="M 338.800781 305 C 338.800781 302.601563 335.199219 302.601563 335.199219 305 C 335.199219 307.398438 338.800781 307.398438 338.800781 305 Z M 338.800781 305 "/>
<path fill-rule="evenodd" fill="rgb(0%, 0%, 0%)" fill-opacity="1" d="M 322.800781 305 C 322.800781 302.601563 319.199219 302.601563 319.199219 305 C 319.199219 307.398438 322.800781 307.398438 322.800781 305 Z M 322.800781 305 "/>
<path fill-rule="evenodd" fill="rgb(0%, 0%, 0%)" fill-opacity="1" d="M 306.800781 321 C 306.800781 318.601563 303.199219 318.601563 303.199219 321 C 303.199219 323.398438 306.800781 323.398438 306.800781 321 Z M 306.800781 321 "/>
<path fill-rule="evenodd" fill="rgb(0%, 0%, 0%)" fill-opacity="1" d="M 290.800781 337 C 290.800781 334.601563 287.199219 334.601563 287.199219 337 C 287.199219 339.398438 290.800781 339.398438 290.800781 337 Z M 290.800781 337 "/>
<path fill-rule="evenodd" fill="rgb(0%, 0%, 0%)" fill-opacity="1" d="M 274.800781 321 C 274.800781 318.601563 271.199219 318.601563 271.199219 321 C 271.199219 323.398438 274.800781 323.398438 274.800781 321 Z M 274.800781 321 "/>
<path fill-rule="evenodd" fill="rgb(0%, 0%, 0%)" fill-opacity="1" d="M 290.800781 337 C 290.800781 334.601563 287.199219 334.601563 287.199219 337 C 287.199219 339.398438 290.800781 339.398438 290.800781 337 Z M 290.800781 337 "/>
<path fill-rule="evenodd" fill="rgb(0%, 0%, 0%)" fill-opacity="1" d="M 274.800781 353 C 274.800781 350.601563 271.199219 350.601563 271.199219 353 C 271.199219 355.398438 274.800781 355.398438 274.800781 353 Z M 274.800781 353 "/>
<path fill-rule="evenodd" fill="rgb(0%, 0%, 0%)" fill-opacity="1" d="M 274.800781 369 C 274.800781 366.601563 271.199219 366.601563 271.199219 369 C 271.199219 371.398438 274.800781 371.398438 274.800781 369 Z M 274.800781 369 "/>
<path fill-rule="evenodd" fill="rgb(0%, 0%, 0%)" fill-opacity="1" d="M 258.800781 353 C 258.800781 350.601563 255.199219 350.601563 255.199219 353 C 255.199219 355.398438 258.800781 355.398438 258.800781 353 Z M 258.800781 353 "/>
<path fill-rule="evenodd" fill="rgb(0%, 0%, 0%)" fill-opacity="1" d="M 258.800781 353 C 258.800781 350.601563 255.199219 350.601563 255.199219 353 C 255.199219 355.398438 258.800781 355.398438 258.800781 353 Z M 258.800781 353 "/>
<path fill-rule="evenodd" fill="rgb(0%, 0%, 0%)" fill-opacity="1" d="M 242.800781 369 C 242.800781 366.601563 239.199219 366.601563 239.199219 369 C 239.199219 371.398438 242.800781 371.398438 242.800781 369 Z M 242.800781 369 "/>
<path fill-rule="evenodd" fill="rgb(0%, 0%, 0%)" fill-opacity="1" d="M 258.800781 369 C 258.800781 366.601563 255.199219 366.601563 255.199219 369 C 255.199219 371.398438 258.800781 371.398438 258.800781 369 Z M 258.800781 369 "/>
<path fill-rule="evenodd" fill="rgb(0%, 0%, 0%)" fill-opacity="1" d="M 290.800781 369 C 290.800781 366.601563 287.199219 366.601563 287.199219 369 C 287.199219 371.398438 290.800781 371.398438 290.800781 369 Z M 290.800781 369 "/>
<path fill-rule="evenodd" fill="rgb(0%, 0%, 0%)" fill-opacity="1" d="M 290.800781 353 C 290.800781 350.601563 287.199219 350.601563 287.199219 353 C 287.199219 355.398438 290.800781 355.398438 290.800781 353 Z M 290.800781 353 "/>
<path fill-rule="evenodd" fill="rgb(0%, 0%, 0%)" fill-opacity="1" d="M 290.800781 353 C 290.800781 350.601563 287.199219 350.601563 287.199219 353 C 287.199219 355.398438 290.800781 355.398438 290.800781 353 Z M 290.800781 353 "/>
<path fill-rule="evenodd" fill="rgb(0%, 0%, 0%)" fill-opacity="1" d="M 306.800781 353 C 306.800781 350.601563 303.199219 350.601563 303.199219 353 C 303.199219 355.398438 306.800781 355.398438 306.800781 353 Z M 306.800781 353 "/>
<path fill-rule="evenodd" fill="rgb(0%, 0%, 0%)" fill-opacity="1" d="M 306.800781 337 C 306.800781 334.601563 303.199219 334.601563 303.199219 337 C 303.199219 339.398438 306.800781 339.398438 306.800781 337 Z M 306.800781 337 "/>
<path fill-rule="evenodd" fill="rgb(0%, 0%, 0%)" fill-opacity="1" d="M 306.800781 337 C 306.800781 334.601563 303.199219 334.601563 303.199219 337 C 303.199219 339.398438 306.800781 339.398438 306.800781 337 Z M 306.800781 337 "/>
<path fill-rule="evenodd" fill="rgb(0%, 0%, 0%)" fill-opacity="1" d="M 290.800781 321 C 290.800781 318.601563 287.199219 318.601563 287.199219 321 C 287.199219 323.398438 290.800781 323.398438 290.800781 321 Z M 290.800781 321 "/>
<path fill-rule="evenodd" fill="rgb(0%, 0%, 0%)" fill-opacity="1" d="M 290.800781 321 C 290.800781 318.601563 287.199219 318.601563 287.199219 321 C 287.199219 323.398438 290.800781 323.398438 290.800781 321 Z M 290.800781 321 "/>
<path fill-rule="evenodd" fill="rgb(0%, 0%, 0%)" fill-opacity="1" d="M 274.800781 337 C 274.800781 334.601563 271.199219 334.601563 271.199219 337 C 271.199219 339.398438 274.800781 339.398438 274.800781 337 Z M 274.800781 337 "/>
<path fill-rule="evenodd" fill="rgb(0%, 0%, 0%)" fill-opacity="1" d="M 258.800781 337 C 258.800781 334.601563 255.199219 334.601563 255.199219 337 C 255.199219 339.398438 258.800781 339.398438 258.800781 337 Z M 258.800781 337 "/>
<path fill-rule="evenodd" fill="rgb(0%, 0%, 0%)" fill-opacity="1" d="M 274.800781 369 C 274.800781 366.601563 271.199219 366.601563 271.199219 369 C 271.199219 371.398438 274.800781 371.398438 274.800781 369 Z M 274.800781 369 "/>
<path fill-rule="evenodd" fill="rgb(0%, 0%, 0%)" fill-opacity="1" d="M 274.800781 385 C 274.800781 382.601563 271.199219 382.601563 271.199219 385 C 271.199219 387.398438 274.800781 387.398438 274.800781 385 Z M 274.800781 385 "/>
<path fill-rule="evenodd" fill="rgb(0%, 0%, 0%)" fill-opacity="1" d="M 258.800781 401 C 258.800781 398.601563 255.199219 398.601563 255.199219 401 C 255.199219 403.398438 258.800781 403.398438 258.800781 401 Z M 258.800781 401 "/>
<path fill-rule="evenodd" fill="rgb(0%, 0%, 0%)" fill-opacity="1" d="M 242.800781 417 C 242.800781 414.601563 239.199219 414.601563 239.199219 417 C 239.199219 419.398438 242.800781 419.398438 242.800781 417 Z M 242.800781 417 "/>
<path fill-rule="evenodd" fill="rgb(0%, 0%, 0%)" fill-opacity="1" d="M 210.800781 417 C 210.800781 414.601563 207.199219 414.601563 207.199219 417 C 207.199219 419.398438 210.800781 419.398438 210.800781 417 Z M 210.800781 417 "/>
<path fill-rule="evenodd" fill="rgb(0%, 0%, 0%)" fill-opacity="1" d="M 178.800781 417 C 178.800781 414.601563 175.199219 414.601563 175.199219 417 C 175.199219 419.398438 178.800781 419.398438 178.800781 417 Z M 178.800781 417 "/>
<path fill-rule="evenodd" fill="rgb(0%, 0%, 0%)" fill-opacity="1" d="M 146.800781 417 C 146.800781 414.601563 143.199219 414.601563 143.199219 417 C 143.199219 419.398438 146.800781 419.398438 146.800781 417 Z M 146.800781 417 "/>
<path fill-rule="evenodd" fill="rgb(0%, 0%, 0%)" fill-opacity="1" d="M 146.800781 433 C 146.800781 430.601563 143.199219 430.601563 143.199219 433 C 143.199219 435.398438 146.800781 435.398438 146.800781 433 Z M 146.800781 433 "/>
<path fill-rule="evenodd" fill="rgb(0%, 0%, 0%)" fill-opacity="1" d="M 130.800781 433 C 130.800781 430.601563 127.199219 430.601563 127.199219 433 C 127.199219 435.398438 130.800781 435.398438 130.800781 433 Z M 130.800781 433 "/>
<path fill-rule="evenodd" fill="rgb(0%, 0%, 0%)" fill-opacity="1" d="M 98.800781 417 C 98.800781 414.601563 95.199219 414.601563 95.199219 417 C 95.199219 419.398438 98.800781 419.398438 98.800781 417 Z M 98.800781 417 "/>
<path fill-rule="evenodd" fill="rgb(0%, 0%, 0%)" fill-opacity="1" d="M 66.800781 401 C 66.800781 398.601563 63.199219 398.601563 63.199219 401 C 63.199219 403.398438 66.800781 403.398438 66.800781 401 Z M 66.800781 401 "/>
<path fill-rule="evenodd" fill="rgb(0%, 0%, 0%)" fill-opacity="1" d="M 34.800781 385 C 34.800781 382.601563 31.199219 382.601563 31.199219 385 C 31.199219 387.398438 34.800781 387.398438 34.800781 385 Z M 34.800781 385 "/>
<path fill-rule="evenodd" fill="rgb(0%, 0%, 0%)" fill-opacity="1" d="M 34.800781 385 C 34.800781 382.601563 31.199219 382.601563 31.199219 385 C 31.199219 387.398438 34.800781 387.398438 34.800781 385 Z M 34.800781 385 "/>
<path fill-rule="evenodd" fill="rgb(0%, 0%, 0%)" fill-opacity="1" d="M 34.800781 401 C 34.800781 398.601563 31.199219 398.601563 31.199219 401 C 31.199219 403.398438 34.800781 403.398438 34.800781 401 Z M 34.800781 401 "/>
<path fill-rule="evenodd" fill="rgb(0%, 0%, 0%)" fill-opacity="1" d="M 50.800781 417 C 50.800781 414.601563 47.199219 414.601563 47.199219 417 C 47.199219 419.398438 50.800781 419.398438 50.800781 417 Z M 50.800781 417 "/>
<path fill-rule="evenodd" fill="rgb(0%, 0%, 0%)" fill-opacity="1" d="M 66.800781 417 C 66.800781 414.601563 63.199219 414.601563 63.199219 417 C 63.199219 419.398438 66.800781 419.398438 66.800781 417 Z M 66.800781 417 "/>
<path fill-rule="evenodd" fill="rgb(0%, 0%, 0%)" fill-opacity="1" d="M 82.800781 417 C 82.800781 414.601563 79.199219 414.601563 79.199219 417 C 79.199219 419.398438 82.800781 419.398438 82.800781 417 Z M 82.800781 417 "/>
<path fill-rule="evenodd" fill="rgb(0%, 0%, 0%)" fill-opacity="1" d="M 114.800781 417 C 114.800781 414.601563 111.199219 414.601563 111.199219 417 C 111.199219 419.398438 114.800781 419.398438 114.800781 417 Z M 114.800781 417 "/>
<path fill-rule="evenodd" fill="rgb(0%, 0%, 0%)" fill-opacity="1" d="M 146.800781 417 C 146.800781 414.601563 143.199219 414.601563 143.199219 417 C 143.199219 419.398438 146.800781 419.398438 146.800781 417 Z M 146.800781 417 "/>
<path fill-rule="evenodd" fill="rgb(0%, 0%, 0%)" fill-opacity="1" d="M 130.800781 417 C 130.800781 414.601563 127.199219 414.601563 127.199219 417 C 127.199219 419.398438 130.800781 419.398438 130.800781 417 Z M 130.800781 417 "/>
<path fill-rule="evenodd" fill="rgb(0%, 0%, 0%)" fill-opacity="1" d="M 50.800781 401 C 50.800781 398.601563 47.199219 398.601563 47.199219 401 C 47.199219 403.398438 50.800781 403.398438 50.800781 401 Z M 50.800781 401 "/>
<path fill-rule="evenodd" fill="rgb(0%, 0%, 0%)" fill-opacity="1" d="M 66.800781 401 C 66.800781 398.601563 63.199219 398.601563 63.199219 401 C 63.199219 403.398438 66.800781 403.398438 66.800781 401 Z M 66.800781 401 "/>
<path fill-rule="evenodd" fill="rgb(0%, 0%, 0%)" fill-opacity="1" d="M 130.800781 401 C 130.800781 398.601563 127.199219 398.601563 127.199219 401 C 127.199219 403.398438 130.800781 403.398438 130.800781 401 Z M 130.800781 401 "/>
<path fill-rule="evenodd" fill="rgb(0%, 0%, 0%)" fill-opacity="1" d="M 178.800781 401 C 178.800781 398.601563 175.199219 398.601563 175.199219 401 C 175.199219 403.398438 178.800781 403.398438 178.800781 401 Z M 178.800781 401 "/>
<path fill-rule="evenodd" fill="rgb(0%, 0%, 0%)" fill-opacity="1" d="M 194.800781 401 C 194.800781 398.601563 191.199219 398.601563 191.199219 401 C 191.199219 403.398438 194.800781 403.398438 194.800781 401 Z M 194.800781 401 "/>
<path fill-rule="evenodd" fill="rgb(0%, 0%, 0%)" fill-opacity="1" d="M 210.800781 417 C 210.800781 414.601563 207.199219 414.601563 207.199219 417 C 207.199219 419.398438 210.800781 419.398438 210.800781 417 Z M 210.800781 417 "/>
<path fill-rule="evenodd" fill="rgb(0%, 0%, 0%)" fill-opacity="1" d="M 306.800781 321 C 306.800781 318.601563 303.199219 318.601563 303.199219 321 C 303.199219 323.398438 306.800781 323.398438 306.800781 321 Z M 306.800781 321 "/>
<path fill-rule="evenodd" fill="rgb(0%, 0%, 0%)" fill-opacity="1" d="M 322.800781 113 C 322.800781 110.601563 319.199219 110.601563 319.199219 113 C 319.199219 115.398438 322.800781 115.398438 322.800781 113 Z M 322.800781 113 "/>
<path fill-rule="evenodd" fill="rgb(0%, 0%, 0%)" fill-opacity="1" d="M 306.800781 97 C 306.800781 94.601563 303.199219 94.601563 303.199219 97 C 303.199219 99.398438 306.800781 99.398438 306.800781 97 Z M 306.800781 97 "/>
<path fill-rule="evenodd" fill="rgb(0%, 0%, 0%)" fill-opacity="1" d="M 306.800781 65 C 306.800781 62.601563 303.199219 62.601563 303.199219 65 C 303.199219 67.398438 306.800781 67.398438 306.800781 65 Z M 306.800781 65 "/>
<path fill-rule="evenodd" fill="rgb(0%, 0%, 0%)" fill-opacity="1" d="M 290.800781 49 C 290.800781 46.601563 287.199219 46.601563 287.199219 49 C 287.199219 51.398438 290.800781 51.398438 290.800781 49 Z M 290.800781 49 "/>
<path fill-rule="evenodd" fill="rgb(0%, 0%, 0%)" fill-opacity="1" d="M 274.800781 17 C 274.800781 14.601563 271.199219 14.601563 271.199219 17 C 271.199219 19.398438 274.800781 19.398438 274.800781 17 Z M 274.800781 17 "/>
<path fill-rule="evenodd" fill="rgb(0%, 0%, 0%)" fill-opacity="1" d="M 258.800781 17 C 258.800781 14.601563 255.199219 14.601563 255.199219 17 C 255.199219 19.398438 258.800781 19.398438 258.800781 17 Z M 258.800781 17 "/>
<path fill-rule="evenodd" fill="rgb(0%, 0%, 0%)" fill-opacity="1" d="M 290.800781 33 C 290.800781 30.601563 287.199219 30.601563 287.199219 33 C 287.199219 35.398438 290.800781 35.398438 290.800781 33 Z M 290.800781 33 "/>
<path fill-rule="evenodd" fill="rgb(0%, 0%, 0%)" fill-opacity="1" d="M 258.800781 17 C 258.800781 14.601563 255.199219 14.601563 255.199219 17 C 255.199219 19.398438 258.800781 19.398438 258.800781 17 Z M 258.800781 17 "/>
<g clip-path="url(#clip-0)">
<path fill="none" stroke-width="0.4" stroke-linecap="butt" stroke-linejoin="round" stroke="rgb(0%, 50.2%, 0%)" stroke-opacity="1" stroke-miterlimit="10" d="M 384 512 C 384 653.386719 269.386719 768 128 768 C -13.386719 768 -128 653.386719 -128 512 C -128 370.613281 -13.386719 256 128 256 C 269.386719 256 384 370.613281 384 512 Z M 384 512 " transform="matrix(1, 0, 0, -1, 1, 705)"/>
</g>
<g clip-path="url(#clip-1)">
<path fill="none" stroke-width="0.4" stroke-linecap="butt" stroke-linejoin="round" stroke="rgb(0%, 50.2%, 0%)" stroke-opacity="1" stroke-miterlimit="10" d="M 320 512 C 320 618.039063 234.039063 704 128 704 C 21.960938 704 -64 618.039063 -64 512 C -64 405.960938 21.960938 320 128 320 C 234.039063 320 320 405.960938 320 512 Z M 320 512 " transform="matrix(1, 0, 0, -1, 1, 705)"/>
</g>
<path fill="none" stroke-width="1" stroke-linecap="butt" stroke-linejoin="round" stroke="rgb(0%, 0%, 0%)" stroke-opacity="1" stroke-miterlimit="10" d="M 0 704 L 0 256 L 592 256 L 592 704 Z M 0 704 " transform="matrix(1, 0, 0, -1, 1, 705)"/>
</svg>
